<svg xmlns="http://www.w3.org/2000/svg" xmlns:xlink="http://www.w3.org/1999/xlink" width="816" zoomAndPan="magnify" viewBox="0 0 612 197.999996" height="264" preserveAspectRatio="xMidYMid meet" version="1.0"><defs><clipPath id="ef874e4bd4"><path d="M 399.738281 0 L 612 0 L 612 198 L 399.738281 198 Z M 399.738281 0 " clip-rule="nonzero"/></clipPath><clipPath id="2f2a40c33e"><path d="M 0 0 L 40.988281 0 L 40.988281 198 L 0 198 Z M 0 0 " clip-rule="nonzero"/></clipPath><clipPath id="f12eab1ff6"><path d="M 385.21875 0 L 414.253906 0 L 414.253906 14.207031 L 385.21875 14.207031 Z M 385.21875 0 " clip-rule="nonzero"/></clipPath><clipPath id="193ae26947"><path d="M 399.738281 -14.828125 C 391.71875 -14.828125 385.21875 -8.328125 385.21875 -0.3125 C 385.21875 7.707031 391.71875 14.207031 399.738281 14.207031 C 407.753906 14.207031 414.253906 7.707031 414.253906 -0.3125 C 414.253906 -8.328125 407.753906 -14.828125 399.738281 -14.828125 Z M 399.738281 -14.828125 " clip-rule="nonzero"/></clipPath><clipPath id="0e433e4d14"><path d="M 601.445312 14.207031 L 612 14.207031 L 612 35.320312 L 601.445312 35.320312 Z M 601.445312 14.207031 " clip-rule="nonzero"/></clipPath><clipPath id="c521d39428"><path d="M 612 14.207031 C 606.171875 14.207031 601.445312 18.933594 601.445312 24.761719 C 601.445312 30.59375 606.171875 35.320312 612 35.320312 C 617.828125 35.320312 622.554688 30.59375 622.554688 24.761719 C 622.554688 18.933594 617.828125 14.207031 612 14.207031 Z M 612 14.207031 " clip-rule="nonzero"/></clipPath><clipPath id="c82e64ea26"><path d="M 601.445312 51.324219 L 612 51.324219 L 612 72.4375 L 601.445312 72.4375 Z M 601.445312 51.324219 " clip-rule="nonzero"/></clipPath><clipPath id="ca32ef3f06"><path d="M 612 51.324219 C 606.171875 51.324219 601.445312 56.050781 601.445312 61.882812 C 601.445312 67.710938 606.171875 72.4375 612 72.4375 C 617.828125 72.4375 622.554688 67.710938 622.554688 61.882812 C 622.554688 56.050781 617.828125 51.324219 612 51.324219 Z M 612 51.324219 " clip-rule="nonzero"/></clipPath><clipPath id="cbc36f7214"><path d="M 601.445312 88.445312 L 612 88.445312 L 612 109.554688 L 601.445312 109.554688 Z M 601.445312 88.445312 " clip-rule="nonzero"/></clipPath><clipPath id="86cf1f517d"><path d="M 612 88.445312 C 606.171875 88.445312 601.445312 93.171875 601.445312 99 C 601.445312 104.828125 606.171875 109.554688 612 109.554688 C 617.828125 109.554688 622.554688 104.828125 622.554688 99 C 622.554688 93.171875 617.828125 88.445312 612 88.445312 Z M 612 88.445312 " clip-rule="nonzero"/></clipPath><clipPath id="581c680e37"><path d="M 601.445312 125.5625 L 612 125.5625 L 612 146.675781 L 601.445312 146.675781 Z M 601.445312 125.5625 " clip-rule="nonzero"/></clipPath><clipPath id="0db9e681b0"><path d="M 612 125.5625 C 606.171875 125.5625 601.445312 130.289062 601.445312 136.117188 C 601.445312 141.949219 606.171875 146.675781 612 146.675781 C 617.828125 146.675781 622.554688 141.949219 622.554688 136.117188 C 622.554688 130.289062 617.828125 125.5625 612 125.5625 Z M 612 125.5625 " clip-rule="nonzero"/></clipPath><clipPath id="863b44b8b5"><path d="M 601.445312 162.679688 L 612 162.679688 L 612 183.792969 L 601.445312 183.792969 Z M 601.445312 162.679688 " clip-rule="nonzero"/></clipPath><clipPath id="d6042b7451"><path d="M 612 162.679688 C 606.171875 162.679688 601.445312 167.40625 601.445312 173.238281 C 601.445312 179.066406 606.171875 183.792969 612 183.792969 C 617.828125 183.792969 622.554688 179.066406 622.554688 173.238281 C 622.554688 167.40625 617.828125 162.679688 612 162.679688 Z M 612 162.679688 " clip-rule="nonzero"/></clipPath><clipPath id="6f7c381069"><path d="M 385.21875 185.253906 L 414.253906 185.253906 L 414.253906 198 L 385.21875 198 Z M 385.21875 185.253906 " clip-rule="nonzero"/></clipPath><clipPath id="66172de0c0"><path d="M 399.738281 185.253906 C 391.71875 185.253906 385.21875 191.753906 385.21875 199.773438 C 385.21875 207.792969 391.71875 214.292969 399.738281 214.292969 C 407.753906 214.292969 414.253906 207.792969 414.253906 199.773438 C 414.253906 191.753906 407.753906 185.253906 399.738281 185.253906 Z M 399.738281 185.253906 " clip-rule="nonzero"/></clipPath><clipPath id="09ee9cbea7"><path d="M 0 84.480469 L 12.300781 84.480469 L 12.300781 113.519531 L 0 113.519531 Z M 0 84.480469 " clip-rule="nonzero"/></clipPath><clipPath id="f7364b125e"><path d="M -2.21875 84.480469 C -10.234375 84.480469 -16.734375 90.980469 -16.734375 99 C -16.734375 107.019531 -10.234375 113.519531 -2.21875 113.519531 C 5.800781 113.519531 12.300781 107.019531 12.300781 99 C 12.300781 90.980469 5.800781 84.480469 -2.21875 84.480469 Z M -2.21875 84.480469 " clip-rule="nonzero"/></clipPath></defs><rect x="-61.2" width="734.4" fill="#ffffff" y="-19.8" height="237.599995" fill-opacity="1"/><rect x="-61.2" width="734.4" fill="#ffffff" y="-19.8" height="237.599995" fill-opacity="1"/><g clip-path="url(#ef874e4bd4)"><path fill="#155ce9" d="M 399.738281 -14.519531 L 621.285156 -14.519531 L 621.285156 212.222656 L 399.738281 212.222656 Z M 399.738281 -14.519531 " fill-opacity="1" fill-rule="nonzero"/></g><g clip-path="url(#2f2a40c33e)"><path fill="#155ce9" d="M -15.945312 -16.292969 L 40.988281 -16.292969 L 40.988281 214.328125 L -15.945312 214.328125 Z M -15.945312 -16.292969 " fill-opacity="1" fill-rule="nonzero"/></g><path fill="#fe8522" d="M 398.980469 214.4375 L 398.980469 209.9375 L 400.480469 209.9375 L 400.480469 214.4375 M 398.980469 208.4375 L 398.980469 203.9375 L 400.480469 203.9375 L 400.480469 208.4375 M 398.980469 202.4375 L 398.980469 197.9375 L 400.480469 197.9375 L 400.480469 202.4375 M 398.980469 196.4375 L 398.980469 191.9375 L 400.480469 191.9375 L 400.480469 196.4375 M 398.980469 190.4375 L 398.980469 185.9375 L 400.480469 185.9375 L 400.480469 190.4375 M 398.980469 184.4375 L 398.980469 179.9375 L 400.480469 179.9375 L 400.480469 184.4375 M 398.980469 178.4375 L 398.980469 173.9375 L 400.480469 173.9375 L 400.480469 178.4375 M 398.980469 172.4375 L 398.980469 167.9375 L 400.480469 167.9375 L 400.480469 172.4375 M 398.980469 166.4375 L 398.980469 161.9375 L 400.480469 161.9375 L 400.480469 166.4375 M 398.980469 160.4375 L 398.980469 155.9375 L 400.480469 155.9375 L 400.480469 160.4375 M 398.980469 154.4375 L 398.980469 149.9375 L 400.480469 149.9375 L 400.480469 154.4375 M 398.980469 148.4375 L 398.980469 143.9375 L 400.480469 143.9375 L 400.480469 148.4375 M 398.980469 142.4375 L 398.980469 137.9375 L 400.480469 137.9375 L 400.480469 142.4375 M 398.980469 136.4375 L 398.980469 131.9375 L 400.480469 131.9375 L 400.480469 136.4375 M 398.980469 130.4375 L 398.980469 125.9375 L 400.480469 125.9375 L 400.480469 130.4375 M 398.980469 124.4375 L 398.980469 119.9375 L 400.480469 119.9375 L 400.480469 124.4375 M 398.980469 118.4375 L 398.980469 113.9375 L 400.480469 113.9375 L 400.480469 118.4375 M 398.980469 112.4375 L 398.980469 107.9375 L 400.480469 107.9375 L 400.480469 112.4375 M 398.980469 106.4375 L 398.980469 101.9375 L 400.480469 101.9375 L 400.480469 106.4375 M 398.980469 100.4375 L 398.980469 95.9375 L 400.480469 95.9375 L 400.480469 100.4375 M 398.980469 94.4375 L 398.980469 89.9375 L 400.480469 89.9375 L 400.480469 94.4375 M 398.980469 88.4375 L 398.980469 83.9375 L 400.480469 83.9375 L 400.480469 88.4375 M 398.980469 82.4375 L 398.980469 77.9375 L 400.480469 77.9375 L 400.480469 82.4375 M 398.980469 76.4375 L 398.980469 71.9375 L 400.480469 71.9375 L 400.480469 76.4375 M 398.980469 70.4375 L 398.980469 65.9375 L 400.480469 65.9375 L 400.480469 70.4375 M 398.980469 64.4375 L 398.980469 59.9375 L 400.480469 59.9375 L 400.480469 64.4375 M 398.980469 58.4375 L 398.980469 53.9375 L 400.480469 53.9375 L 400.480469 58.4375 M 398.980469 52.4375 L 398.980469 47.9375 L 400.480469 47.9375 L 400.480469 52.4375 M 398.980469 46.4375 L 398.980469 41.9375 L 400.480469 41.9375 L 400.480469 46.4375 M 398.980469 40.4375 L 398.980469 35.9375 L 400.480469 35.9375 L 400.480469 40.4375 M 398.980469 34.4375 L 398.980469 29.9375 L 400.480469 29.9375 L 400.480469 34.4375 M 398.980469 28.4375 L 398.980469 23.9375 L 400.480469 23.9375 L 400.480469 28.4375 M 398.980469 22.4375 L 398.980469 17.9375 L 400.480469 17.9375 L 400.480469 22.4375 M 398.980469 16.4375 L 398.980469 11.9375 L 400.480469 11.9375 L 400.480469 16.4375 M 398.980469 10.4375 L 398.980469 5.9375 L 400.480469 5.9375 L 400.480469 10.4375 M 398.980469 4.4375 L 398.980469 -0.0625 L 400.480469 -0.0625 L 400.480469 4.4375 M 398.980469 -1.5625 L 398.980469 -6.0625 L 400.480469 -6.0625 L 400.480469 -1.5625 M 398.980469 -7.5625 L 398.980469 -12.0625 L 400.480469 -12.0625 L 400.480469 -7.5625 M 398.980469 -13.5625 L 398.980469 -14.523438 L 400.480469 -14.523438 L 400.480469 -13.5625 " fill-opacity="1" fill-rule="nonzero"/><g clip-path="url(#f12eab1ff6)"><g clip-path="url(#193ae26947)"><path fill="#10191e" d="M 385.21875 -14.828125 L 414.253906 -14.828125 L 414.253906 14.207031 L 385.21875 14.207031 Z M 385.21875 -14.828125 " fill-opacity="1" fill-rule="nonzero"/></g></g><g clip-path="url(#0e433e4d14)"><g clip-path="url(#c521d39428)"><path fill="#222222" d="M 601.445312 14.207031 L 622.554688 14.207031 L 622.554688 35.320312 L 601.445312 35.320312 Z M 601.445312 14.207031 " fill-opacity="1" fill-rule="nonzero"/></g></g><g clip-path="url(#c82e64ea26)"><g clip-path="url(#ca32ef3f06)"><path fill="#222222" d="M 601.445312 51.324219 L 622.554688 51.324219 L 622.554688 72.4375 L 601.445312 72.4375 Z M 601.445312 51.324219 " fill-opacity="1" fill-rule="nonzero"/></g></g><g clip-path="url(#cbc36f7214)"><g clip-path="url(#86cf1f517d)"><path fill="#222222" d="M 601.445312 88.445312 L 622.554688 88.445312 L 622.554688 109.554688 L 601.445312 109.554688 Z M 601.445312 88.445312 " fill-opacity="1" fill-rule="nonzero"/></g></g><g clip-path="url(#581c680e37)"><g clip-path="url(#0db9e681b0)"><path fill="#222222" d="M 601.445312 125.5625 L 622.554688 125.5625 L 622.554688 146.675781 L 601.445312 146.675781 Z M 601.445312 125.5625 " fill-opacity="1" fill-rule="nonzero"/></g></g><g clip-path="url(#863b44b8b5)"><g clip-path="url(#d6042b7451)"><path fill="#222222" d="M 601.445312 162.679688 L 622.554688 162.679688 L 622.554688 183.792969 L 601.445312 183.792969 Z M 601.445312 162.679688 " fill-opacity="1" fill-rule="nonzero"/></g></g><g clip-path="url(#6f7c381069)"><g clip-path="url(#66172de0c0)"><path fill="#10191e" d="M 385.21875 185.253906 L 414.253906 185.253906 L 414.253906 214.292969 L 385.21875 214.292969 Z M 385.21875 185.253906 " fill-opacity="1" fill-rule="nonzero"/></g></g><g clip-path="url(#09ee9cbea7)"><g clip-path="url(#f7364b125e)"><path fill="#ffffff" d="M -16.734375 84.480469 L 12.300781 84.480469 L 12.300781 113.519531 L -16.734375 113.519531 Z M -16.734375 84.480469 " fill-opacity="1" fill-rule="nonzero"/></g></g></svg>