<svg xmlns="http://www.w3.org/2000/svg" xmlns:xlink="http://www.w3.org/1999/xlink" width="816" zoomAndPan="magnify" viewBox="0 0 612 197.999996" height="264" preserveAspectRatio="xMidYMid meet" version="1.0"><defs><clipPath id="f6556bfe0b"><path d="M 399.738281 0 L 612 0 L 612 198 L 399.738281 198 Z M 399.738281 0 " clip-rule="nonzero"/></clipPath><clipPath id="1365df18b6"><path d="M 0 0 L 40.988281 0 L 40.988281 198 L 0 198 Z M 0 0 " clip-rule="nonzero"/></clipPath><clipPath id="3384aa8619"><path d="M 385.21875 0 L 414.253906 0 L 414.253906 14.207031 L 385.21875 14.207031 Z M 385.21875 0 " clip-rule="nonzero"/></clipPath><clipPath id="3f343c4cad"><path d="M 399.738281 -14.828125 C 391.71875 -14.828125 385.21875 -8.328125 385.21875 -0.3125 C 385.21875 7.707031 391.71875 14.207031 399.738281 14.207031 C 407.753906 14.207031 414.253906 7.707031 414.253906 -0.3125 C 414.253906 -8.328125 407.753906 -14.828125 399.738281 -14.828125 Z M 399.738281 -14.828125 " clip-rule="nonzero"/></clipPath><clipPath id="c443226f33"><path d="M 385.21875 0 L 414.246094 0 L 414.246094 14.199219 L 385.21875 14.199219 Z M 385.21875 0 " clip-rule="nonzero"/></clipPath><clipPath id="1c94953970"><path d="M 399.734375 -14.828125 C 391.71875 -14.828125 385.21875 -8.332031 385.21875 -0.316406 C 385.21875 7.699219 391.71875 14.199219 399.734375 14.199219 C 407.75 14.199219 414.246094 7.699219 414.246094 -0.316406 C 414.246094 -8.332031 407.75 -14.828125 399.734375 -14.828125 Z M 399.734375 -14.828125 " clip-rule="nonzero"/></clipPath><clipPath id="d14189dda5"><path d="M 601.445312 14.207031 L 612 14.207031 L 612 35.320312 L 601.445312 35.320312 Z M 601.445312 14.207031 " clip-rule="nonzero"/></clipPath><clipPath id="2c055e005d"><path d="M 612 14.207031 C 606.171875 14.207031 601.445312 18.933594 601.445312 24.761719 C 601.445312 30.59375 606.171875 35.320312 612 35.320312 C 617.828125 35.320312 622.554688 30.59375 622.554688 24.761719 C 622.554688 18.933594 617.828125 14.207031 612 14.207031 Z M 612 14.207031 " clip-rule="nonzero"/></clipPath><clipPath id="e1c97d0925"><path d="M 601.445312 51.324219 L 612 51.324219 L 612 72.4375 L 601.445312 72.4375 Z M 601.445312 51.324219 " clip-rule="nonzero"/></clipPath><clipPath id="2b3ce7f4f2"><path d="M 612 51.324219 C 606.171875 51.324219 601.445312 56.050781 601.445312 61.882812 C 601.445312 67.710938 606.171875 72.4375 612 72.4375 C 617.828125 72.4375 622.554688 67.710938 622.554688 61.882812 C 622.554688 56.050781 617.828125 51.324219 612 51.324219 Z M 612 51.324219 " clip-rule="nonzero"/></clipPath><clipPath id="99a70518e3"><path d="M 601.445312 88.445312 L 612 88.445312 L 612 109.554688 L 601.445312 109.554688 Z M 601.445312 88.445312 " clip-rule="nonzero"/></clipPath><clipPath id="1d64af8940"><path d="M 612 88.445312 C 606.171875 88.445312 601.445312 93.171875 601.445312 99 C 601.445312 104.828125 606.171875 109.554688 612 109.554688 C 617.828125 109.554688 622.554688 104.828125 622.554688 99 C 622.554688 93.171875 617.828125 88.445312 612 88.445312 Z M 612 88.445312 " clip-rule="nonzero"/></clipPath><clipPath id="8a08eebb40"><path d="M 601.445312 125.5625 L 612 125.5625 L 612 146.675781 L 601.445312 146.675781 Z M 601.445312 125.5625 " clip-rule="nonzero"/></clipPath><clipPath id="04e67f64b9"><path d="M 612 125.5625 C 606.171875 125.5625 601.445312 130.289062 601.445312 136.117188 C 601.445312 141.949219 606.171875 146.675781 612 146.675781 C 617.828125 146.675781 622.554688 141.949219 622.554688 136.117188 C 622.554688 130.289062 617.828125 125.5625 612 125.5625 Z M 612 125.5625 " clip-rule="nonzero"/></clipPath><clipPath id="cb7a262aab"><path d="M 601.445312 162.679688 L 612 162.679688 L 612 183.792969 L 601.445312 183.792969 Z M 601.445312 162.679688 " clip-rule="nonzero"/></clipPath><clipPath id="3aebc9e47e"><path d="M 612 162.679688 C 606.171875 162.679688 601.445312 167.40625 601.445312 173.238281 C 601.445312 179.066406 606.171875 183.792969 612 183.792969 C 617.828125 183.792969 622.554688 179.066406 622.554688 173.238281 C 622.554688 167.40625 617.828125 162.679688 612 162.679688 Z M 612 162.679688 " clip-rule="nonzero"/></clipPath><clipPath id="1bb3b131f8"><path d="M 385.21875 185.253906 L 414.253906 185.253906 L 414.253906 198 L 385.21875 198 Z M 385.21875 185.253906 " clip-rule="nonzero"/></clipPath><clipPath id="708ae6e984"><path d="M 399.738281 185.253906 C 391.71875 185.253906 385.21875 191.753906 385.21875 199.773438 C 385.21875 207.792969 391.71875 214.292969 399.738281 214.292969 C 407.753906 214.292969 414.253906 207.792969 414.253906 199.773438 C 414.253906 191.753906 407.753906 185.253906 399.738281 185.253906 Z M 399.738281 185.253906 " clip-rule="nonzero"/></clipPath><clipPath id="68da975dfe"><path d="M 385.21875 185.253906 L 414.246094 185.253906 L 414.246094 198 L 385.21875 198 Z M 385.21875 185.253906 " clip-rule="nonzero"/></clipPath><clipPath id="bacbb7d769"><path d="M 399.734375 185.253906 C 391.71875 185.253906 385.21875 191.753906 385.21875 199.769531 C 385.21875 207.785156 391.71875 214.28125 399.734375 214.28125 C 407.75 214.28125 414.246094 207.785156 414.246094 199.769531 C 414.246094 191.753906 407.75 185.253906 399.734375 185.253906 Z M 399.734375 185.253906 " clip-rule="nonzero"/></clipPath><clipPath id="f4927cd288"><path d="M 0 84.480469 L 12.300781 84.480469 L 12.300781 113.519531 L 0 113.519531 Z M 0 84.480469 " clip-rule="nonzero"/></clipPath><clipPath id="60ef76da1b"><path d="M -2.21875 84.480469 C -10.234375 84.480469 -16.734375 90.980469 -16.734375 99 C -16.734375 107.019531 -10.234375 113.519531 -2.21875 113.519531 C 5.800781 113.519531 12.300781 107.019531 12.300781 99 C 12.300781 90.980469 5.800781 84.480469 -2.21875 84.480469 Z M -2.21875 84.480469 " clip-rule="nonzero"/></clipPath><clipPath id="aa1d687ee4"><path d="M 0 0 L 12.300781 0 L 12.300781 9.421875 L 0 9.421875 Z M 0 0 " clip-rule="nonzero"/></clipPath><clipPath id="5522cbd314"><path d="M -2.21875 -19.613281 C -10.234375 -19.613281 -16.734375 -13.113281 -16.734375 -5.097656 C -16.734375 2.921875 -10.234375 9.421875 -2.21875 9.421875 C 5.800781 9.421875 12.300781 2.921875 12.300781 -5.097656 C 12.300781 -13.113281 5.800781 -19.613281 -2.21875 -19.613281 Z M -2.21875 -19.613281 " clip-rule="nonzero"/></clipPath><clipPath id="7192397cf4"><path d="M 0 0 L 12.292969 0 L 12.292969 9.414062 L 0 9.414062 Z M 0 0 " clip-rule="nonzero"/></clipPath><clipPath id="e380a388eb"><path d="M -2.222656 -19.613281 C -10.238281 -19.613281 -16.734375 -13.117188 -16.734375 -5.101562 C -16.734375 2.914062 -10.238281 9.414062 -2.222656 9.414062 C 5.792969 9.414062 12.292969 2.914062 12.292969 -5.101562 C 12.292969 -13.117188 5.792969 -19.613281 -2.222656 -19.613281 Z M -2.222656 -19.613281 " clip-rule="nonzero"/></clipPath><clipPath id="ab91b2541e"><path d="M 0 188.519531 L 12.300781 188.519531 L 12.300781 198 L 0 198 Z M 0 188.519531 " clip-rule="nonzero"/></clipPath><clipPath id="e161b7fde7"><path d="M -2.21875 188.519531 C -10.234375 188.519531 -16.734375 195.019531 -16.734375 203.035156 C -16.734375 211.054688 -10.234375 217.554688 -2.21875 217.554688 C 5.800781 217.554688 12.300781 211.054688 12.300781 203.035156 C 12.300781 195.019531 5.800781 188.519531 -2.21875 188.519531 Z M -2.21875 188.519531 " clip-rule="nonzero"/></clipPath><clipPath id="ec0f5ab859"><path d="M 0 188.519531 L 12.292969 188.519531 L 12.292969 198 L 0 198 Z M 0 188.519531 " clip-rule="nonzero"/></clipPath><clipPath id="82dd3e4fb6"><path d="M -2.222656 188.519531 C -10.238281 188.519531 -16.734375 195.015625 -16.734375 203.03125 C -16.734375 211.046875 -10.238281 217.546875 -2.222656 217.546875 C 5.792969 217.546875 12.292969 211.046875 12.292969 203.03125 C 12.292969 195.015625 5.792969 188.519531 -2.222656 188.519531 Z M -2.222656 188.519531 " clip-rule="nonzero"/></clipPath></defs><rect x="-61.2" width="734.4" fill="#ffffff" y="-19.8" height="237.599995" fill-opacity="1"/><rect x="-61.2" width="734.4" fill="#155ce9" y="-19.8" height="237.599995" fill-opacity="1"/><g clip-path="url(#f6556bfe0b)"><path fill="#0948c6" d="M 399.738281 -14.519531 L 621.285156 -14.519531 L 621.285156 212.222656 L 399.738281 212.222656 Z M 399.738281 -14.519531 " fill-opacity="1" fill-rule="nonzero"/></g><g clip-path="url(#1365df18b6)"><path fill="#155ce9" d="M -15.945312 -16.292969 L 40.988281 -16.292969 L 40.988281 214.328125 L -15.945312 214.328125 Z M -15.945312 -16.292969 " fill-opacity="1" fill-rule="nonzero"/></g><path fill="#ffffff" d="M 394.859375 209.5625 C 394.859375 209.242188 394.890625 208.925781 394.953125 208.609375 C 395.015625 208.296875 395.105469 207.992188 395.230469 207.695312 C 395.351562 207.402344 395.5 207.121094 395.679688 206.851562 C 395.855469 206.585938 396.058594 206.339844 396.285156 206.113281 C 396.511719 205.886719 396.757812 205.6875 397.023438 205.507812 C 397.289062 205.332031 397.570312 205.179688 397.867188 205.058594 C 398.164062 204.933594 398.46875 204.84375 398.78125 204.78125 C 399.097656 204.71875 399.414062 204.6875 399.734375 204.6875 C 400.054688 204.6875 400.371094 204.71875 400.683594 204.78125 C 400.996094 204.84375 401.304688 204.933594 401.597656 205.058594 C 401.894531 205.179688 402.175781 205.332031 402.441406 205.507812 C 402.707031 205.6875 402.953125 205.886719 403.179688 206.113281 C 403.40625 206.339844 403.609375 206.585938 403.785156 206.851562 C 403.964844 207.121094 404.113281 207.402344 404.238281 207.695312 C 404.359375 207.992188 404.453125 208.296875 404.515625 208.609375 C 404.578125 208.925781 404.609375 209.242188 404.609375 209.5625 C 404.609375 209.882812 404.578125 210.199219 404.515625 210.515625 C 404.453125 210.828125 404.359375 211.132812 404.238281 211.429688 C 404.113281 211.722656 403.964844 212.003906 403.785156 212.269531 C 403.609375 212.539062 403.40625 212.785156 403.179688 213.011719 C 402.953125 213.238281 402.707031 213.4375 402.441406 213.617188 C 402.175781 213.792969 401.894531 213.945312 401.597656 214.066406 C 401.304688 214.1875 400.996094 214.28125 400.683594 214.34375 C 400.371094 214.40625 400.054688 214.4375 399.734375 214.4375 C 399.414062 214.4375 399.097656 214.40625 398.78125 214.34375 C 398.46875 214.28125 398.164062 214.1875 397.867188 214.066406 C 397.570312 213.945312 397.289062 213.792969 397.023438 213.617188 C 396.757812 213.4375 396.511719 213.238281 396.285156 213.011719 C 396.058594 212.785156 395.855469 212.539062 395.679688 212.269531 C 395.5 212.003906 395.351562 211.722656 395.230469 211.429688 C 395.105469 211.132812 395.015625 210.828125 394.953125 210.515625 C 394.890625 210.199219 394.859375 209.882812 394.859375 209.5625 Z M 394.859375 190.0625 C 394.859375 189.742188 394.890625 189.421875 394.953125 189.109375 C 395.015625 188.796875 395.105469 188.492188 395.230469 188.195312 C 395.351562 187.898438 395.5 187.617188 395.679688 187.351562 C 395.855469 187.085938 396.058594 186.839844 396.285156 186.613281 C 396.511719 186.386719 396.757812 186.183594 397.023438 186.007812 C 397.289062 185.828125 397.570312 185.679688 397.867188 185.558594 C 398.164062 185.433594 398.46875 185.34375 398.78125 185.28125 C 399.097656 185.21875 399.414062 185.1875 399.734375 185.1875 C 400.054688 185.1875 400.371094 185.21875 400.683594 185.28125 C 400.996094 185.34375 401.304688 185.433594 401.597656 185.558594 C 401.894531 185.679688 402.175781 185.828125 402.441406 186.007812 C 402.707031 186.183594 402.953125 186.386719 403.179688 186.613281 C 403.40625 186.839844 403.609375 187.085938 403.785156 187.351562 C 403.964844 187.617188 404.113281 187.898438 404.238281 188.195312 C 404.359375 188.492188 404.453125 188.796875 404.515625 189.109375 C 404.578125 189.421875 404.609375 189.742188 404.609375 190.0625 C 404.609375 190.382812 404.578125 190.699219 404.515625 191.011719 C 404.453125 191.328125 404.359375 191.632812 404.238281 191.925781 C 404.113281 192.222656 403.964844 192.503906 403.785156 192.769531 C 403.609375 193.035156 403.40625 193.28125 403.179688 193.507812 C 402.953125 193.734375 402.707031 193.9375 402.441406 194.117188 C 402.175781 194.292969 401.894531 194.441406 401.597656 194.566406 C 401.304688 194.6875 400.996094 194.78125 400.683594 194.84375 C 400.371094 194.90625 400.054688 194.9375 399.734375 194.9375 C 399.414062 194.9375 399.097656 194.90625 398.78125 194.84375 C 398.46875 194.78125 398.164062 194.6875 397.867188 194.566406 C 397.570312 194.441406 397.289062 194.292969 397.023438 194.117188 C 396.757812 193.9375 396.511719 193.734375 396.285156 193.507812 C 396.058594 193.28125 395.855469 193.035156 395.679688 192.769531 C 395.5 192.503906 395.351562 192.222656 395.230469 191.925781 C 395.105469 191.632812 395.015625 191.328125 394.953125 191.011719 C 394.890625 190.699219 394.859375 190.382812 394.859375 190.0625 Z M 394.859375 170.5625 L 394.859375 170.558594 C 394.859375 170.238281 394.890625 169.921875 394.953125 169.609375 C 395.015625 169.296875 395.105469 168.988281 395.230469 168.695312 C 395.351562 168.398438 395.5 168.117188 395.679688 167.851562 C 395.855469 167.585938 396.058594 167.339844 396.285156 167.113281 C 396.511719 166.886719 396.757812 166.683594 397.023438 166.507812 C 397.289062 166.328125 397.570312 166.179688 397.867188 166.054688 C 398.164062 165.933594 398.46875 165.839844 398.78125 165.777344 C 399.097656 165.714844 399.414062 165.683594 399.734375 165.683594 C 400.054688 165.683594 400.371094 165.714844 400.683594 165.777344 C 400.996094 165.839844 401.304688 165.933594 401.597656 166.054688 C 401.894531 166.179688 402.175781 166.328125 402.441406 166.507812 C 402.707031 166.683594 402.953125 166.886719 403.179688 167.113281 C 403.40625 167.339844 403.609375 167.585938 403.785156 167.851562 C 403.964844 168.117188 404.113281 168.398438 404.238281 168.695312 C 404.359375 168.988281 404.453125 169.296875 404.515625 169.609375 C 404.578125 169.921875 404.609375 170.238281 404.609375 170.558594 L 404.609375 170.5625 C 404.609375 170.882812 404.578125 171.199219 404.515625 171.511719 C 404.453125 171.824219 404.359375 172.128906 404.238281 172.425781 C 404.113281 172.722656 403.964844 173.003906 403.785156 173.269531 C 403.609375 173.535156 403.40625 173.78125 403.179688 174.007812 C 402.953125 174.234375 402.707031 174.4375 402.441406 174.613281 C 402.175781 174.792969 401.894531 174.941406 401.597656 175.066406 C 401.304688 175.1875 400.996094 175.28125 400.683594 175.34375 C 400.371094 175.40625 400.054688 175.4375 399.734375 175.4375 C 399.414062 175.4375 399.097656 175.40625 398.78125 175.34375 C 398.46875 175.28125 398.164062 175.1875 397.867188 175.066406 C 397.570312 174.941406 397.289062 174.792969 397.023438 174.613281 C 396.757812 174.4375 396.511719 174.234375 396.285156 174.007812 C 396.058594 173.78125 395.855469 173.535156 395.679688 173.269531 C 395.5 173.003906 395.351562 172.722656 395.230469 172.425781 C 395.105469 172.128906 395.015625 171.824219 394.953125 171.511719 C 394.890625 171.199219 394.859375 170.882812 394.859375 170.5625 Z M 394.859375 151.058594 C 394.859375 150.738281 394.890625 150.421875 394.953125 150.109375 C 395.015625 149.792969 395.105469 149.488281 395.230469 149.195312 C 395.351562 148.898438 395.5 148.617188 395.679688 148.351562 C 395.855469 148.085938 396.058594 147.839844 396.285156 147.613281 C 396.511719 147.386719 396.757812 147.183594 397.023438 147.003906 C 397.289062 146.828125 397.570312 146.675781 397.867188 146.554688 C 398.164062 146.433594 398.46875 146.339844 398.78125 146.277344 C 399.097656 146.214844 399.414062 146.183594 399.734375 146.183594 C 400.054688 146.183594 400.371094 146.214844 400.683594 146.277344 C 400.996094 146.339844 401.304688 146.433594 401.597656 146.554688 C 401.894531 146.675781 402.175781 146.828125 402.441406 147.003906 C 402.707031 147.183594 402.953125 147.386719 403.179688 147.613281 C 403.40625 147.839844 403.609375 148.085938 403.785156 148.351562 C 403.964844 148.617188 404.113281 148.898438 404.238281 149.195312 C 404.359375 149.488281 404.453125 149.792969 404.515625 150.109375 C 404.578125 150.421875 404.609375 150.738281 404.609375 151.058594 C 404.609375 151.378906 404.578125 151.695312 404.515625 152.011719 C 404.453125 152.324219 404.359375 152.628906 404.238281 152.925781 C 404.113281 153.222656 403.964844 153.503906 403.785156 153.769531 C 403.609375 154.035156 403.40625 154.28125 403.179688 154.507812 C 402.953125 154.734375 402.707031 154.933594 402.441406 155.113281 C 402.175781 155.292969 401.894531 155.441406 401.597656 155.5625 C 401.304688 155.6875 400.996094 155.777344 400.683594 155.839844 C 400.371094 155.902344 400.054688 155.933594 399.734375 155.933594 C 399.414062 155.933594 399.097656 155.902344 398.78125 155.839844 C 398.46875 155.777344 398.164062 155.6875 397.867188 155.5625 C 397.570312 155.441406 397.289062 155.292969 397.023438 155.113281 C 396.757812 154.933594 396.511719 154.734375 396.285156 154.507812 C 396.058594 154.28125 395.855469 154.035156 395.679688 153.769531 C 395.5 153.503906 395.351562 153.222656 395.230469 152.925781 C 395.105469 152.628906 395.015625 152.324219 394.953125 152.011719 C 394.890625 151.695312 394.859375 151.378906 394.859375 151.058594 Z M 394.859375 131.558594 C 394.859375 131.238281 394.890625 130.921875 394.953125 130.605469 C 395.015625 130.292969 395.105469 129.988281 395.230469 129.691406 C 395.351562 129.398438 395.5 129.117188 395.679688 128.847656 C 395.855469 128.582031 396.058594 128.335938 396.285156 128.109375 C 396.511719 127.882812 396.757812 127.683594 397.023438 127.503906 C 397.289062 127.328125 397.570312 127.175781 397.867188 127.054688 C 398.164062 126.929688 398.46875 126.839844 398.78125 126.777344 C 399.097656 126.714844 399.414062 126.683594 399.734375 126.683594 C 400.054688 126.683594 400.371094 126.714844 400.683594 126.777344 C 400.996094 126.839844 401.304688 126.929688 401.597656 127.054688 C 401.894531 127.175781 402.175781 127.328125 402.441406 127.503906 C 402.707031 127.683594 402.953125 127.882812 403.179688 128.109375 C 403.40625 128.335938 403.609375 128.582031 403.785156 128.847656 C 403.964844 129.117188 404.113281 129.398438 404.238281 129.691406 C 404.359375 129.988281 404.453125 130.292969 404.515625 130.605469 C 404.578125 130.921875 404.609375 131.238281 404.609375 131.558594 C 404.609375 131.878906 404.578125 132.195312 404.515625 132.511719 C 404.453125 132.824219 404.359375 133.128906 404.238281 133.425781 C 404.113281 133.71875 403.964844 134 403.785156 134.265625 C 403.609375 134.535156 403.40625 134.78125 403.179688 135.007812 C 402.953125 135.234375 402.707031 135.433594 402.441406 135.613281 C 402.175781 135.789062 401.894531 135.941406 401.597656 136.0625 C 401.304688 136.183594 400.996094 136.277344 400.683594 136.339844 C 400.371094 136.402344 400.054688 136.433594 399.734375 136.433594 C 399.414062 136.433594 399.097656 136.402344 398.78125 136.339844 C 398.46875 136.277344 398.164062 136.183594 397.867188 136.0625 C 397.570312 135.941406 397.289062 135.789062 397.023438 135.613281 C 396.757812 135.433594 396.511719 135.234375 396.285156 135.007812 C 396.058594 134.78125 395.855469 134.535156 395.679688 134.265625 C 395.5 134 395.351562 133.71875 395.230469 133.425781 C 395.105469 133.128906 395.015625 132.824219 394.953125 132.511719 C 394.890625 132.195312 394.859375 131.878906 394.859375 131.558594 Z M 394.859375 112.058594 C 394.859375 111.738281 394.890625 111.417969 394.953125 111.105469 C 395.015625 110.792969 395.105469 110.488281 395.230469 110.191406 C 395.351562 109.894531 395.5 109.613281 395.679688 109.347656 C 395.855469 109.082031 396.058594 108.835938 396.285156 108.609375 C 396.511719 108.382812 396.757812 108.179688 397.023438 108.003906 C 397.289062 107.824219 397.570312 107.675781 397.867188 107.554688 C 398.164062 107.429688 398.46875 107.339844 398.78125 107.277344 C 399.097656 107.214844 399.414062 107.183594 399.734375 107.183594 C 400.054688 107.183594 400.371094 107.214844 400.683594 107.277344 C 400.996094 107.339844 401.304688 107.429688 401.597656 107.554688 C 401.894531 107.675781 402.175781 107.824219 402.441406 108.003906 C 402.707031 108.179688 402.953125 108.382812 403.179688 108.609375 C 403.40625 108.835938 403.609375 109.082031 403.785156 109.347656 C 403.964844 109.613281 404.113281 109.894531 404.238281 110.191406 C 404.359375 110.488281 404.453125 110.792969 404.515625 111.105469 C 404.578125 111.417969 404.609375 111.738281 404.609375 112.058594 C 404.609375 112.378906 404.578125 112.695312 404.515625 113.007812 C 404.453125 113.324219 404.359375 113.628906 404.238281 113.921875 C 404.113281 114.21875 403.964844 114.5 403.785156 114.765625 C 403.609375 115.03125 403.40625 115.277344 403.179688 115.503906 C 402.953125 115.730469 402.707031 115.933594 402.441406 116.113281 C 402.175781 116.289062 401.894531 116.4375 401.597656 116.5625 C 401.304688 116.683594 400.996094 116.777344 400.683594 116.839844 C 400.371094 116.902344 400.054688 116.933594 399.734375 116.933594 C 399.414062 116.933594 399.097656 116.902344 398.78125 116.839844 C 398.46875 116.777344 398.164062 116.683594 397.867188 116.5625 C 397.570312 116.4375 397.289062 116.289062 397.023438 116.113281 C 396.757812 115.933594 396.511719 115.730469 396.285156 115.503906 C 396.058594 115.277344 395.855469 115.03125 395.679688 114.765625 C 395.5 114.5 395.351562 114.21875 395.230469 113.921875 C 395.105469 113.628906 395.015625 113.324219 394.953125 113.007812 C 394.890625 112.695312 394.859375 112.378906 394.859375 112.058594 Z M 394.859375 92.558594 L 394.859375 92.554688 C 394.859375 92.234375 394.890625 91.917969 394.953125 91.605469 C 395.015625 91.292969 395.105469 90.984375 395.230469 90.691406 C 395.351562 90.394531 395.5 90.113281 395.679688 89.847656 C 395.855469 89.582031 396.058594 89.335938 396.285156 89.109375 C 396.511719 88.882812 396.757812 88.679688 397.023438 88.503906 C 397.289062 88.324219 397.570312 88.175781 397.867188 88.050781 C 398.164062 87.929688 398.46875 87.835938 398.78125 87.773438 C 399.097656 87.710938 399.414062 87.679688 399.734375 87.679688 C 400.054688 87.679688 400.371094 87.710938 400.683594 87.773438 C 400.996094 87.835938 401.304688 87.929688 401.597656 88.050781 C 401.894531 88.175781 402.175781 88.324219 402.441406 88.503906 C 402.707031 88.679688 402.953125 88.882812 403.179688 89.109375 C 403.40625 89.335938 403.609375 89.582031 403.785156 89.847656 C 403.964844 90.113281 404.113281 90.394531 404.238281 90.691406 C 404.359375 90.984375 404.453125 91.292969 404.515625 91.605469 C 404.578125 91.917969 404.609375 92.234375 404.609375 92.554688 L 404.609375 92.558594 C 404.609375 92.878906 404.578125 93.195312 404.515625 93.507812 C 404.453125 93.820312 404.359375 94.125 404.238281 94.421875 C 404.113281 94.71875 403.964844 95 403.785156 95.265625 C 403.609375 95.53125 403.40625 95.777344 403.179688 96.003906 C 402.953125 96.230469 402.707031 96.433594 402.441406 96.609375 C 402.175781 96.789062 401.894531 96.9375 401.597656 97.0625 C 401.304688 97.183594 400.996094 97.277344 400.683594 97.339844 C 400.371094 97.402344 400.054688 97.433594 399.734375 97.433594 C 399.414062 97.433594 399.097656 97.402344 398.78125 97.339844 C 398.46875 97.277344 398.164062 97.183594 397.867188 97.0625 C 397.570312 96.9375 397.289062 96.789062 397.023438 96.609375 C 396.757812 96.433594 396.511719 96.230469 396.285156 96.003906 C 396.058594 95.777344 395.855469 95.53125 395.679688 95.265625 C 395.5 95 395.351562 94.71875 395.230469 94.421875 C 395.105469 94.125 395.015625 93.820312 394.953125 93.507812 C 394.890625 93.195312 394.859375 92.878906 394.859375 92.558594 Z M 394.859375 73.054688 C 394.859375 72.734375 394.890625 72.417969 394.953125 72.105469 C 395.015625 71.789062 395.105469 71.484375 395.230469 71.191406 C 395.351562 70.894531 395.5 70.613281 395.679688 70.347656 C 395.855469 70.082031 396.058594 69.835938 396.285156 69.609375 C 396.511719 69.382812 396.757812 69.179688 397.023438 69 C 397.289062 68.824219 397.570312 68.671875 397.867188 68.550781 C 398.164062 68.429688 398.46875 68.335938 398.78125 68.273438 C 399.097656 68.210938 399.414062 68.179688 399.734375 68.179688 C 400.054688 68.179688 400.371094 68.210938 400.683594 68.273438 C 400.996094 68.335938 401.304688 68.429688 401.597656 68.550781 C 401.894531 68.671875 402.175781 68.824219 402.441406 69 C 402.707031 69.179688 402.953125 69.382812 403.179688 69.609375 C 403.40625 69.835938 403.609375 70.082031 403.785156 70.347656 C 403.964844 70.613281 404.113281 70.894531 404.238281 71.191406 C 404.359375 71.484375 404.453125 71.789062 404.515625 72.105469 C 404.578125 72.417969 404.609375 72.734375 404.609375 73.054688 C 404.609375 73.375 404.578125 73.691406 404.515625 74.007812 C 404.453125 74.320312 404.359375 74.625 404.238281 74.921875 C 404.113281 75.21875 403.964844 75.5 403.785156 75.765625 C 403.609375 76.03125 403.40625 76.277344 403.179688 76.503906 C 402.953125 76.730469 402.707031 76.933594 402.441406 77.109375 C 402.175781 77.289062 401.894531 77.4375 401.597656 77.558594 C 401.304688 77.683594 400.996094 77.773438 400.683594 77.835938 C 400.371094 77.898438 400.054688 77.929688 399.734375 77.929688 C 399.414062 77.929688 399.097656 77.898438 398.78125 77.835938 C 398.46875 77.773438 398.164062 77.683594 397.867188 77.558594 C 397.570312 77.4375 397.289062 77.289062 397.023438 77.109375 C 396.757812 76.933594 396.511719 76.730469 396.285156 76.503906 C 396.058594 76.277344 395.855469 76.03125 395.679688 75.765625 C 395.5 75.5 395.351562 75.21875 395.230469 74.921875 C 395.105469 74.625 395.015625 74.320312 394.953125 74.007812 C 394.890625 73.691406 394.859375 73.375 394.859375 73.054688 Z M 394.859375 53.554688 C 394.859375 53.234375 394.890625 52.917969 394.953125 52.601562 C 395.015625 52.289062 395.105469 51.984375 395.230469 51.6875 C 395.351562 51.394531 395.5 51.113281 395.679688 50.84375 C 395.855469 50.578125 396.058594 50.332031 396.285156 50.105469 C 396.511719 49.878906 396.757812 49.679688 397.023438 49.5 C 397.289062 49.324219 397.570312 49.171875 397.867188 49.050781 C 398.164062 48.925781 398.46875 48.835938 398.78125 48.773438 C 399.097656 48.710938 399.414062 48.679688 399.734375 48.679688 C 400.054688 48.679688 400.371094 48.710938 400.683594 48.773438 C 400.996094 48.835938 401.304688 48.925781 401.597656 49.050781 C 401.894531 49.171875 402.175781 49.324219 402.441406 49.5 C 402.707031 49.679688 402.953125 49.878906 403.179688 50.105469 C 403.40625 50.332031 403.609375 50.578125 403.785156 50.84375 C 403.964844 51.113281 404.113281 51.394531 404.238281 51.6875 C 404.359375 51.984375 404.453125 52.289062 404.515625 52.601562 C 404.578125 52.917969 404.609375 53.234375 404.609375 53.554688 C 404.609375 53.875 404.578125 54.191406 404.515625 54.507812 C 404.453125 54.820312 404.359375 55.125 404.238281 55.421875 C 404.113281 55.714844 403.964844 55.996094 403.785156 56.261719 C 403.609375 56.53125 403.40625 56.777344 403.179688 57.003906 C 402.953125 57.230469 402.707031 57.429688 402.441406 57.609375 C 402.175781 57.785156 401.894531 57.9375 401.597656 58.058594 C 401.304688 58.179688 400.996094 58.273438 400.683594 58.335938 C 400.371094 58.398438 400.054688 58.429688 399.734375 58.429688 C 399.414062 58.429688 399.097656 58.398438 398.78125 58.335938 C 398.46875 58.273438 398.164062 58.179688 397.867188 58.058594 C 397.570312 57.9375 397.289062 57.785156 397.023438 57.609375 C 396.757812 57.429688 396.511719 57.230469 396.285156 57.003906 C 396.058594 56.777344 395.855469 56.53125 395.679688 56.261719 C 395.5 55.996094 395.351562 55.714844 395.230469 55.421875 C 395.105469 55.125 395.015625 54.820312 394.953125 54.507812 C 394.890625 54.191406 394.859375 53.875 394.859375 53.554688 Z M 394.859375 34.054688 C 394.859375 33.734375 394.890625 33.417969 394.953125 33.101562 C 395.015625 32.789062 395.105469 32.484375 395.230469 32.1875 C 395.351562 31.890625 395.5 31.609375 395.679688 31.34375 C 395.855469 31.078125 396.058594 30.832031 396.285156 30.605469 C 396.511719 30.378906 396.757812 30.175781 397.023438 30 C 397.289062 29.820312 397.570312 29.671875 397.867188 29.550781 C 398.164062 29.425781 398.46875 29.335938 398.78125 29.273438 C 399.097656 29.210938 399.414062 29.179688 399.734375 29.179688 C 400.054688 29.179688 400.371094 29.210938 400.683594 29.273438 C 400.996094 29.335938 401.304688 29.425781 401.597656 29.550781 C 401.894531 29.671875 402.175781 29.820312 402.441406 30 C 402.707031 30.175781 402.953125 30.378906 403.179688 30.605469 C 403.40625 30.832031 403.609375 31.078125 403.785156 31.34375 C 403.964844 31.609375 404.113281 31.890625 404.238281 32.1875 C 404.359375 32.484375 404.453125 32.789062 404.515625 33.101562 C 404.578125 33.417969 404.609375 33.734375 404.609375 34.054688 C 404.609375 34.375 404.578125 34.691406 404.515625 35.003906 C 404.453125 35.320312 404.359375 35.625 404.238281 35.917969 C 404.113281 36.214844 403.964844 36.496094 403.785156 36.761719 C 403.609375 37.027344 403.40625 37.273438 403.179688 37.5 C 402.953125 37.726562 402.707031 37.929688 402.441406 38.109375 C 402.175781 38.285156 401.894531 38.433594 401.597656 38.558594 C 401.304688 38.679688 400.996094 38.773438 400.683594 38.835938 C 400.371094 38.898438 400.054688 38.929688 399.734375 38.929688 C 399.414062 38.929688 399.097656 38.898438 398.78125 38.835938 C 398.46875 38.773438 398.164062 38.679688 397.867188 38.558594 C 397.570312 38.433594 397.289062 38.285156 397.023438 38.109375 C 396.757812 37.929688 396.511719 37.726562 396.285156 37.5 C 396.058594 37.273438 395.855469 37.027344 395.679688 36.761719 C 395.5 36.496094 395.351562 36.214844 395.230469 35.917969 C 395.105469 35.625 395.015625 35.320312 394.953125 35.003906 C 394.890625 34.691406 394.859375 34.375 394.859375 34.054688 Z M 394.859375 34.054688 " fill-opacity="1" fill-rule="nonzero"/><g clip-path="url(#3384aa8619)"><g clip-path="url(#3f343c4cad)"><path fill="#ffffff" d="M 385.21875 -14.828125 L 414.253906 -14.828125 L 414.253906 14.207031 L 385.21875 14.207031 Z M 385.21875 -14.828125 " fill-opacity="1" fill-rule="nonzero"/></g></g><g clip-path="url(#c443226f33)"><g clip-path="url(#1c94953970)"><path stroke-linecap="butt" transform="matrix(0.75, 0, 0, 0.75, 385.219406, -14.828617)" fill="none" stroke-linejoin="miter" d="M 19.353294 0.000656003 C 8.665793 0.000656003 -0.000874065 8.662115 -0.000874065 19.349616 C -0.000874065 30.037116 8.665793 38.703783 19.353294 38.703783 C 30.040794 38.703783 38.702253 30.037116 38.702253 19.349616 C 38.702253 8.662115 30.040794 0.000656003 19.353294 0.000656003 Z M 19.353294 0.000656003 " stroke="#ffffff" stroke-width="2" stroke-opacity="1" stroke-miterlimit="4"/></g></g><g clip-path="url(#d14189dda5)"><g clip-path="url(#2c055e005d)"><path fill="#ffffff" d="M 601.445312 14.207031 L 622.554688 14.207031 L 622.554688 35.320312 L 601.445312 35.320312 Z M 601.445312 14.207031 " fill-opacity="1" fill-rule="nonzero"/></g></g><g clip-path="url(#e1c97d0925)"><g clip-path="url(#2b3ce7f4f2)"><path fill="#ffffff" d="M 601.445312 51.324219 L 622.554688 51.324219 L 622.554688 72.4375 L 601.445312 72.4375 Z M 601.445312 51.324219 " fill-opacity="1" fill-rule="nonzero"/></g></g><g clip-path="url(#99a70518e3)"><g clip-path="url(#1d64af8940)"><path fill="#ffffff" d="M 601.445312 88.445312 L 622.554688 88.445312 L 622.554688 109.554688 L 601.445312 109.554688 Z M 601.445312 88.445312 " fill-opacity="1" fill-rule="nonzero"/></g></g><g clip-path="url(#8a08eebb40)"><g clip-path="url(#04e67f64b9)"><path fill="#ffffff" d="M 601.445312 125.5625 L 622.554688 125.5625 L 622.554688 146.675781 L 601.445312 146.675781 Z M 601.445312 125.5625 " fill-opacity="1" fill-rule="nonzero"/></g></g><g clip-path="url(#cb7a262aab)"><g clip-path="url(#3aebc9e47e)"><path fill="#ffffff" d="M 601.445312 162.679688 L 622.554688 162.679688 L 622.554688 183.792969 L 601.445312 183.792969 Z M 601.445312 162.679688 " fill-opacity="1" fill-rule="nonzero"/></g></g><g clip-path="url(#1bb3b131f8)"><g clip-path="url(#708ae6e984)"><path fill="#ffffff" d="M 385.21875 185.253906 L 414.253906 185.253906 L 414.253906 214.292969 L 385.21875 214.292969 Z M 385.21875 185.253906 " fill-opacity="1" fill-rule="nonzero"/></g></g><g clip-path="url(#68da975dfe)"><g clip-path="url(#bacbb7d769)"><path stroke-linecap="butt" transform="matrix(0.75, 0, 0, 0.75, 385.219406, 185.255569)" fill="none" stroke-linejoin="miter" d="M 19.353294 -0.00221638 C 8.665793 -0.00221638 -0.000874065 8.664451 -0.000874065 19.351951 C -0.000874065 30.039452 8.665793 38.700911 19.353294 38.700911 C 30.040794 38.700911 38.702253 30.039452 38.702253 19.351951 C 38.702253 8.664451 30.040794 -0.00221638 19.353294 -0.00221638 Z M 19.353294 -0.00221638 " stroke="#ffffff" stroke-width="2" stroke-opacity="1" stroke-miterlimit="4"/></g></g><g clip-path="url(#f4927cd288)"><g clip-path="url(#60ef76da1b)"><path fill="#ffffff" d="M -16.734375 84.480469 L 12.300781 84.480469 L 12.300781 113.519531 L -16.734375 113.519531 Z M -16.734375 84.480469 " fill-opacity="1" fill-rule="nonzero"/></g></g><g clip-path="url(#aa1d687ee4)"><g clip-path="url(#5522cbd314)"><path fill="#ffffff" d="M -16.734375 -19.613281 L 12.300781 -19.613281 L 12.300781 9.421875 L -16.734375 9.421875 Z M -16.734375 -19.613281 " fill-opacity="1" fill-rule="nonzero"/></g></g><g clip-path="url(#7192397cf4)"><g clip-path="url(#e380a388eb)"><path stroke-linecap="butt" transform="matrix(0.75, 0, 0, 0.75, -16.735618, -19.61359)" fill="none" stroke-linejoin="miter" d="M 19.350617 0.000411755 C 8.663117 0.000411755 0.00165774 8.661871 0.00165774 19.349371 C 0.00165774 30.036872 8.663117 38.703539 19.350617 38.703539 C 30.038118 38.703539 38.704785 30.036872 38.704785 19.349371 C 38.704785 8.661871 30.038118 0.000411755 19.350617 0.000411755 Z M 19.350617 0.000411755 " stroke="#ffffff" stroke-width="2" stroke-opacity="1" stroke-miterlimit="4"/></g></g><g clip-path="url(#ab91b2541e)"><g clip-path="url(#e161b7fde7)"><path fill="#ffffff" d="M -16.734375 188.519531 L 12.300781 188.519531 L 12.300781 217.554688 L -16.734375 217.554688 Z M -16.734375 188.519531 " fill-opacity="1" fill-rule="nonzero"/></g></g><g clip-path="url(#ec0f5ab859)"><g clip-path="url(#82dd3e4fb6)"><path stroke-linecap="butt" transform="matrix(0.75, 0, 0, 0.75, -16.735618, 188.517807)" fill="none" stroke-linejoin="miter" d="M 19.350617 0.00229935 C 8.663117 0.00229935 0.00165774 8.663758 0.00165774 19.351259 C 0.00165774 30.03876 8.663117 38.705427 19.350617 38.705427 C 30.038118 38.705427 38.704785 30.03876 38.704785 19.351259 C 38.704785 8.663758 30.038118 0.00229935 19.350617 0.00229935 Z M 19.350617 0.00229935 " stroke="#ffffff" stroke-width="2" stroke-opacity="1" stroke-miterlimit="4"/></g></g></svg>