<svg xmlns="http://www.w3.org/2000/svg" xmlns:xlink="http://www.w3.org/1999/xlink" width="816" zoomAndPan="magnify" viewBox="0 0 612 197.999996" height="264" preserveAspectRatio="xMidYMid meet" version="1.0"><defs><clipPath id="7c507c5567"><path d="M 399.738281 0 L 612 0 L 612 198 L 399.738281 198 Z M 399.738281 0 " clip-rule="nonzero"/></clipPath><clipPath id="2042e5aa90"><path d="M 0 0 L 40.988281 0 L 40.988281 198 L 0 198 Z M 0 0 " clip-rule="nonzero"/></clipPath><clipPath id="f95e579c6a"><path d="M 385.21875 0 L 414.253906 0 L 414.253906 14.207031 L 385.21875 14.207031 Z M 385.21875 0 " clip-rule="nonzero"/></clipPath><clipPath id="c76d49f34d"><path d="M 399.738281 -14.828125 C 391.71875 -14.828125 385.21875 -8.328125 385.21875 -0.3125 C 385.21875 7.707031 391.71875 14.207031 399.738281 14.207031 C 407.753906 14.207031 414.253906 7.707031 414.253906 -0.3125 C 414.253906 -8.328125 407.753906 -14.828125 399.738281 -14.828125 Z M 399.738281 -14.828125 " clip-rule="nonzero"/></clipPath><clipPath id="e2298ec690"><path d="M 385.21875 0 L 414.246094 0 L 414.246094 14.199219 L 385.21875 14.199219 Z M 385.21875 0 " clip-rule="nonzero"/></clipPath><clipPath id="4e313fdd9f"><path d="M 399.734375 -14.828125 C 391.71875 -14.828125 385.21875 -8.332031 385.21875 -0.316406 C 385.21875 7.699219 391.71875 14.199219 399.734375 14.199219 C 407.75 14.199219 414.246094 7.699219 414.246094 -0.316406 C 414.246094 -8.332031 407.75 -14.828125 399.734375 -14.828125 Z M 399.734375 -14.828125 " clip-rule="nonzero"/></clipPath><clipPath id="08075f8a70"><path d="M 601.445312 14.207031 L 612 14.207031 L 612 35.320312 L 601.445312 35.320312 Z M 601.445312 14.207031 " clip-rule="nonzero"/></clipPath><clipPath id="2166a7fb58"><path d="M 612 14.207031 C 606.171875 14.207031 601.445312 18.933594 601.445312 24.761719 C 601.445312 30.59375 606.171875 35.320312 612 35.320312 C 617.828125 35.320312 622.554688 30.59375 622.554688 24.761719 C 622.554688 18.933594 617.828125 14.207031 612 14.207031 Z M 612 14.207031 " clip-rule="nonzero"/></clipPath><clipPath id="57675b7f3e"><path d="M 601.445312 51.324219 L 612 51.324219 L 612 72.4375 L 601.445312 72.4375 Z M 601.445312 51.324219 " clip-rule="nonzero"/></clipPath><clipPath id="c9d5fbeb32"><path d="M 612 51.324219 C 606.171875 51.324219 601.445312 56.050781 601.445312 61.882812 C 601.445312 67.710938 606.171875 72.4375 612 72.4375 C 617.828125 72.4375 622.554688 67.710938 622.554688 61.882812 C 622.554688 56.050781 617.828125 51.324219 612 51.324219 Z M 612 51.324219 " clip-rule="nonzero"/></clipPath><clipPath id="9a0ade7819"><path d="M 601.445312 88.445312 L 612 88.445312 L 612 109.554688 L 601.445312 109.554688 Z M 601.445312 88.445312 " clip-rule="nonzero"/></clipPath><clipPath id="9391dc03d0"><path d="M 612 88.445312 C 606.171875 88.445312 601.445312 93.171875 601.445312 99 C 601.445312 104.828125 606.171875 109.554688 612 109.554688 C 617.828125 109.554688 622.554688 104.828125 622.554688 99 C 622.554688 93.171875 617.828125 88.445312 612 88.445312 Z M 612 88.445312 " clip-rule="nonzero"/></clipPath><clipPath id="0b490d4871"><path d="M 601.445312 125.5625 L 612 125.5625 L 612 146.675781 L 601.445312 146.675781 Z M 601.445312 125.5625 " clip-rule="nonzero"/></clipPath><clipPath id="9364f22650"><path d="M 612 125.5625 C 606.171875 125.5625 601.445312 130.289062 601.445312 136.117188 C 601.445312 141.949219 606.171875 146.675781 612 146.675781 C 617.828125 146.675781 622.554688 141.949219 622.554688 136.117188 C 622.554688 130.289062 617.828125 125.5625 612 125.5625 Z M 612 125.5625 " clip-rule="nonzero"/></clipPath><clipPath id="4c8331b20b"><path d="M 601.445312 162.679688 L 612 162.679688 L 612 183.792969 L 601.445312 183.792969 Z M 601.445312 162.679688 " clip-rule="nonzero"/></clipPath><clipPath id="b7ef5586ab"><path d="M 612 162.679688 C 606.171875 162.679688 601.445312 167.40625 601.445312 173.238281 C 601.445312 179.066406 606.171875 183.792969 612 183.792969 C 617.828125 183.792969 622.554688 179.066406 622.554688 173.238281 C 622.554688 167.40625 617.828125 162.679688 612 162.679688 Z M 612 162.679688 " clip-rule="nonzero"/></clipPath><clipPath id="0350d00e7f"><path d="M 385.21875 185.253906 L 414.253906 185.253906 L 414.253906 198 L 385.21875 198 Z M 385.21875 185.253906 " clip-rule="nonzero"/></clipPath><clipPath id="f94dbda5b5"><path d="M 399.738281 185.253906 C 391.71875 185.253906 385.21875 191.753906 385.21875 199.773438 C 385.21875 207.792969 391.71875 214.292969 399.738281 214.292969 C 407.753906 214.292969 414.253906 207.792969 414.253906 199.773438 C 414.253906 191.753906 407.753906 185.253906 399.738281 185.253906 Z M 399.738281 185.253906 " clip-rule="nonzero"/></clipPath><clipPath id="8e836bfd0f"><path d="M 385.21875 185.253906 L 414.246094 185.253906 L 414.246094 198 L 385.21875 198 Z M 385.21875 185.253906 " clip-rule="nonzero"/></clipPath><clipPath id="a4f1970a30"><path d="M 399.734375 185.253906 C 391.71875 185.253906 385.21875 191.753906 385.21875 199.769531 C 385.21875 207.785156 391.71875 214.28125 399.734375 214.28125 C 407.75 214.28125 414.246094 207.785156 414.246094 199.769531 C 414.246094 191.753906 407.75 185.253906 399.734375 185.253906 Z M 399.734375 185.253906 " clip-rule="nonzero"/></clipPath><clipPath id="71b903a3bc"><path d="M 0 84.480469 L 12.300781 84.480469 L 12.300781 113.519531 L 0 113.519531 Z M 0 84.480469 " clip-rule="nonzero"/></clipPath><clipPath id="2f4e91b5be"><path d="M -2.21875 84.480469 C -10.234375 84.480469 -16.734375 90.980469 -16.734375 99 C -16.734375 107.019531 -10.234375 113.519531 -2.21875 113.519531 C 5.800781 113.519531 12.300781 107.019531 12.300781 99 C 12.300781 90.980469 5.800781 84.480469 -2.21875 84.480469 Z M -2.21875 84.480469 " clip-rule="nonzero"/></clipPath><clipPath id="ab072e0dc6"><path d="M 0 0 L 12.300781 0 L 12.300781 9.421875 L 0 9.421875 Z M 0 0 " clip-rule="nonzero"/></clipPath><clipPath id="31538326ed"><path d="M -2.21875 -19.613281 C -10.234375 -19.613281 -16.734375 -13.113281 -16.734375 -5.097656 C -16.734375 2.921875 -10.234375 9.421875 -2.21875 9.421875 C 5.800781 9.421875 12.300781 2.921875 12.300781 -5.097656 C 12.300781 -13.113281 5.800781 -19.613281 -2.21875 -19.613281 Z M -2.21875 -19.613281 " clip-rule="nonzero"/></clipPath><clipPath id="5cbef2c9d4"><path d="M 0 0 L 12.292969 0 L 12.292969 9.414062 L 0 9.414062 Z M 0 0 " clip-rule="nonzero"/></clipPath><clipPath id="ce41bfd4b9"><path d="M -2.222656 -19.613281 C -10.238281 -19.613281 -16.734375 -13.117188 -16.734375 -5.101562 C -16.734375 2.914062 -10.238281 9.414062 -2.222656 9.414062 C 5.792969 9.414062 12.292969 2.914062 12.292969 -5.101562 C 12.292969 -13.117188 5.792969 -19.613281 -2.222656 -19.613281 Z M -2.222656 -19.613281 " clip-rule="nonzero"/></clipPath><clipPath id="adba3fe1fd"><path d="M 0 188.519531 L 12.300781 188.519531 L 12.300781 198 L 0 198 Z M 0 188.519531 " clip-rule="nonzero"/></clipPath><clipPath id="307ae69a69"><path d="M -2.21875 188.519531 C -10.234375 188.519531 -16.734375 195.019531 -16.734375 203.035156 C -16.734375 211.054688 -10.234375 217.554688 -2.21875 217.554688 C 5.800781 217.554688 12.300781 211.054688 12.300781 203.035156 C 12.300781 195.019531 5.800781 188.519531 -2.21875 188.519531 Z M -2.21875 188.519531 " clip-rule="nonzero"/></clipPath><clipPath id="f3284627c7"><path d="M 0 188.519531 L 12.292969 188.519531 L 12.292969 198 L 0 198 Z M 0 188.519531 " clip-rule="nonzero"/></clipPath><clipPath id="897552b7bf"><path d="M -2.222656 188.519531 C -10.238281 188.519531 -16.734375 195.015625 -16.734375 203.03125 C -16.734375 211.046875 -10.238281 217.546875 -2.222656 217.546875 C 5.792969 217.546875 12.292969 211.046875 12.292969 203.03125 C 12.292969 195.015625 5.792969 188.519531 -2.222656 188.519531 Z M -2.222656 188.519531 " clip-rule="nonzero"/></clipPath></defs><rect x="-61.2" width="734.4" fill="#ffffff" y="-19.8" height="237.599995" fill-opacity="1"/><rect x="-61.2" width="734.4" fill="#155ce9" y="-19.8" height="237.599995" fill-opacity="1"/><g clip-path="url(#7c507c5567)"><path fill="#0948c6" d="M 399.738281 -14.519531 L 621.285156 -14.519531 L 621.285156 212.222656 L 399.738281 212.222656 Z M 399.738281 -14.519531 " fill-opacity="1" fill-rule="nonzero"/></g><g clip-path="url(#2042e5aa90)"><path fill="#155ce9" d="M -15.945312 -16.292969 L 40.988281 -16.292969 L 40.988281 214.328125 L -15.945312 214.328125 Z M -15.945312 -16.292969 " fill-opacity="1" fill-rule="nonzero"/></g><path fill="#ffffff" d="M 398.230469 214.4375 L 398.230469 205.4375 L 401.230469 205.4375 L 401.230469 214.4375 M 398.230469 202.4375 L 398.230469 193.4375 L 401.230469 193.4375 L 401.230469 202.4375 M 398.230469 190.4375 L 398.230469 181.4375 L 401.230469 181.4375 L 401.230469 190.4375 M 398.230469 178.4375 L 398.230469 169.4375 L 401.230469 169.4375 L 401.230469 178.4375 M 398.230469 166.4375 L 398.230469 157.4375 L 401.230469 157.4375 L 401.230469 166.4375 M 398.230469 154.4375 L 398.230469 145.4375 L 401.230469 145.4375 L 401.230469 154.4375 M 398.230469 142.4375 L 398.230469 133.4375 L 401.230469 133.4375 L 401.230469 142.4375 M 398.230469 130.4375 L 398.230469 121.4375 L 401.230469 121.4375 L 401.230469 130.4375 M 398.230469 118.4375 L 398.230469 109.4375 L 401.230469 109.4375 L 401.230469 118.4375 M 398.230469 106.4375 L 398.230469 97.4375 L 401.230469 97.4375 L 401.230469 106.4375 M 398.230469 94.4375 L 398.230469 85.4375 L 401.230469 85.4375 L 401.230469 94.4375 M 398.230469 82.4375 L 398.230469 73.4375 L 401.230469 73.4375 L 401.230469 82.4375 M 398.230469 70.4375 L 398.230469 61.4375 L 401.230469 61.4375 L 401.230469 70.4375 M 398.230469 58.4375 L 398.230469 49.4375 L 401.230469 49.4375 L 401.230469 58.4375 M 398.230469 46.4375 L 398.230469 37.4375 L 401.230469 37.4375 L 401.230469 46.4375 M 398.230469 34.4375 L 398.230469 25.4375 L 401.230469 25.4375 L 401.230469 34.4375 M 398.230469 22.4375 L 398.230469 13.4375 L 401.230469 13.4375 L 401.230469 22.4375 M 398.230469 10.4375 L 398.230469 1.4375 L 401.230469 1.4375 L 401.230469 10.4375 M 398.230469 -1.5625 L 398.230469 -10.5625 L 401.230469 -10.5625 L 401.230469 -1.5625 M 398.230469 -13.5625 L 398.230469 -14.523438 L 401.230469 -14.523438 L 401.230469 -13.5625 " fill-opacity="1" fill-rule="nonzero"/><g clip-path="url(#f95e579c6a)"><g clip-path="url(#c76d49f34d)"><path fill="#ffffff" d="M 385.21875 -14.828125 L 414.253906 -14.828125 L 414.253906 14.207031 L 385.21875 14.207031 Z M 385.21875 -14.828125 " fill-opacity="1" fill-rule="nonzero"/></g></g><g clip-path="url(#e2298ec690)"><g clip-path="url(#4e313fdd9f)"><path stroke-linecap="butt" transform="matrix(0.75, 0, 0, 0.75, 385.219406, -14.828617)" fill="none" stroke-linejoin="miter" d="M 19.353294 0.000656003 C 8.665793 0.000656003 -0.000874065 8.662115 -0.000874065 19.349616 C -0.000874065 30.037116 8.665793 38.703783 19.353294 38.703783 C 30.040794 38.703783 38.702253 30.037116 38.702253 19.349616 C 38.702253 8.662115 30.040794 0.000656003 19.353294 0.000656003 Z M 19.353294 0.000656003 " stroke="#ffffff" stroke-width="2" stroke-opacity="1" stroke-miterlimit="4"/></g></g><g clip-path="url(#08075f8a70)"><g clip-path="url(#2166a7fb58)"><path fill="#ffffff" d="M 601.445312 14.207031 L 622.554688 14.207031 L 622.554688 35.320312 L 601.445312 35.320312 Z M 601.445312 14.207031 " fill-opacity="1" fill-rule="nonzero"/></g></g><g clip-path="url(#57675b7f3e)"><g clip-path="url(#c9d5fbeb32)"><path fill="#ffffff" d="M 601.445312 51.324219 L 622.554688 51.324219 L 622.554688 72.4375 L 601.445312 72.4375 Z M 601.445312 51.324219 " fill-opacity="1" fill-rule="nonzero"/></g></g><g clip-path="url(#9a0ade7819)"><g clip-path="url(#9391dc03d0)"><path fill="#ffffff" d="M 601.445312 88.445312 L 622.554688 88.445312 L 622.554688 109.554688 L 601.445312 109.554688 Z M 601.445312 88.445312 " fill-opacity="1" fill-rule="nonzero"/></g></g><g clip-path="url(#0b490d4871)"><g clip-path="url(#9364f22650)"><path fill="#ffffff" d="M 601.445312 125.5625 L 622.554688 125.5625 L 622.554688 146.675781 L 601.445312 146.675781 Z M 601.445312 125.5625 " fill-opacity="1" fill-rule="nonzero"/></g></g><g clip-path="url(#4c8331b20b)"><g clip-path="url(#b7ef5586ab)"><path fill="#ffffff" d="M 601.445312 162.679688 L 622.554688 162.679688 L 622.554688 183.792969 L 601.445312 183.792969 Z M 601.445312 162.679688 " fill-opacity="1" fill-rule="nonzero"/></g></g><g clip-path="url(#0350d00e7f)"><g clip-path="url(#f94dbda5b5)"><path fill="#ffffff" d="M 385.21875 185.253906 L 414.253906 185.253906 L 414.253906 214.292969 L 385.21875 214.292969 Z M 385.21875 185.253906 " fill-opacity="1" fill-rule="nonzero"/></g></g><g clip-path="url(#8e836bfd0f)"><g clip-path="url(#a4f1970a30)"><path stroke-linecap="butt" transform="matrix(0.75, 0, 0, 0.75, 385.219406, 185.255569)" fill="none" stroke-linejoin="miter" d="M 19.353294 -0.00221638 C 8.665793 -0.00221638 -0.000874065 8.664451 -0.000874065 19.351951 C -0.000874065 30.039452 8.665793 38.700911 19.353294 38.700911 C 30.040794 38.700911 38.702253 30.039452 38.702253 19.351951 C 38.702253 8.664451 30.040794 -0.00221638 19.353294 -0.00221638 Z M 19.353294 -0.00221638 " stroke="#ffffff" stroke-width="2" stroke-opacity="1" stroke-miterlimit="4"/></g></g><g clip-path="url(#71b903a3bc)"><g clip-path="url(#2f4e91b5be)"><path fill="#ffffff" d="M -16.734375 84.480469 L 12.300781 84.480469 L 12.300781 113.519531 L -16.734375 113.519531 Z M -16.734375 84.480469 " fill-opacity="1" fill-rule="nonzero"/></g></g><g clip-path="url(#ab072e0dc6)"><g clip-path="url(#31538326ed)"><path fill="#ffffff" d="M -16.734375 -19.613281 L 12.300781 -19.613281 L 12.300781 9.421875 L -16.734375 9.421875 Z M -16.734375 -19.613281 " fill-opacity="1" fill-rule="nonzero"/></g></g><g clip-path="url(#5cbef2c9d4)"><g clip-path="url(#ce41bfd4b9)"><path stroke-linecap="butt" transform="matrix(0.75, 0, 0, 0.75, -16.735618, -19.61359)" fill="none" stroke-linejoin="miter" d="M 19.350617 0.000411755 C 8.663117 0.000411755 0.00165774 8.661871 0.00165774 19.349371 C 0.00165774 30.036872 8.663117 38.703539 19.350617 38.703539 C 30.038118 38.703539 38.704785 30.036872 38.704785 19.349371 C 38.704785 8.661871 30.038118 0.000411755 19.350617 0.000411755 Z M 19.350617 0.000411755 " stroke="#ffffff" stroke-width="2" stroke-opacity="1" stroke-miterlimit="4"/></g></g><g clip-path="url(#adba3fe1fd)"><g clip-path="url(#307ae69a69)"><path fill="#ffffff" d="M -16.734375 188.519531 L 12.300781 188.519531 L 12.300781 217.554688 L -16.734375 217.554688 Z M -16.734375 188.519531 " fill-opacity="1" fill-rule="nonzero"/></g></g><g clip-path="url(#f3284627c7)"><g clip-path="url(#897552b7bf)"><path stroke-linecap="butt" transform="matrix(0.75, 0, 0, 0.75, -16.735618, 188.517807)" fill="none" stroke-linejoin="miter" d="M 19.350617 0.00229935 C 8.663117 0.00229935 0.00165774 8.663758 0.00165774 19.351259 C 0.00165774 30.03876 8.663117 38.705427 19.350617 38.705427 C 30.038118 38.705427 38.704785 30.03876 38.704785 19.351259 C 38.704785 8.663758 30.038118 0.00229935 19.350617 0.00229935 Z M 19.350617 0.00229935 " stroke="#ffffff" stroke-width="2" stroke-opacity="1" stroke-miterlimit="4"/></g></g></svg>