<?xml version="1.0" standalone="no"?>
<!DOCTYPE svg PUBLIC "-//W3C//DTD SVG 20010904//EN"
 "http://www.w3.org/TR/2001/REC-SVG-20010904/DTD/svg10.dtd">
<svg version="1.0" xmlns="http://www.w3.org/2000/svg"
 width="500.000000pt" height="500.000000pt" viewBox="0 0 500.000000 500.000000"
 preserveAspectRatio="xMidYMid meet">
<metadata>
Created by potrace 1.14, written by Peter Selinger 2001-2017
</metadata>
<g transform="translate(0.000000,500.000000) scale(0.100000,-0.100000)"
fill="#000000" stroke="none">
<path d="M2320 4960 c0 -3 -26 -6 -58 -7 -73 -3 -141 -12 -226 -29 -11 -2 -32
-6 -46 -9 -45 -9 -96 -22 -195 -50 -5 -1 -25 -6 -42 -10 -18 -4 -33 -12 -33
-17 0 -5 -4 -7 -8 -4 -9 5 -188 -59 -207 -74 -5 -4 -27 -13 -47 -19 -21 -7
-38 -17 -38 -22 0 -5 -3 -8 -7 -7 -8 2 -103 -42 -113 -52 -3 -3 -25 -16 -50
-29 -25 -13 -66 -39 -93 -57 -26 -19 -51 -34 -56 -34 -5 0 -11 -3 -13 -7 -1
-5 -21 -20 -44 -36 -22 -15 -49 -35 -60 -45 -10 -9 -35 -29 -54 -43 -19 -15
-65 -55 -102 -90 -38 -36 -68 -63 -68 -61 0 2 -24 -23 -52 -54 -29 -32 -64
-70 -78 -85 -14 -15 -36 -42 -50 -59 -14 -17 -32 -40 -40 -50 -8 -10 -22 -28
-30 -41 -8 -12 -23 -31 -32 -41 -10 -10 -19 -21 -19 -25 -1 -5 -19 -34 -40
-65 -22 -31 -39 -62 -39 -67 0 -6 -4 -11 -10 -11 -5 0 -10 -7 -10 -15 0 -8 -3
-15 -7 -15 -5 0 -17 -20 -28 -45 -11 -25 -23 -45 -28 -45 -4 0 -5 -4 -2 -10 3
-5 1 -10 -4 -10 -6 0 -10 -3 -9 -7 1 -5 -9 -33 -24 -63 -47 -101 -65 -144 -93
-225 -15 -44 -30 -87 -33 -95 -3 -8 -4 -21 -3 -27 1 -7 -2 -13 -7 -13 -5 0 -9
-6 -10 -12 -1 -21 -13 -71 -18 -80 -6 -10 -13 -45 -16 -80 -1 -16 -5 -28 -9
-28 -4 0 -6 -14 -4 -30 2 -17 1 -28 -4 -26 -4 3 -7 -5 -6 -17 1 -12 0 -26 -3
-32 -4 -5 -7 -23 -9 -40 -1 -16 -5 -59 -9 -95 -4 -36 -7 -95 -8 -132 0 -38 -4
-68 -8 -68 -4 0 -3 -11 2 -25 6 -15 6 -27 0 -30 -6 -3 -5 -16 1 -33 7 -18 7
-28 0 -30 -6 -2 -8 -8 -5 -14 3 -5 8 -46 11 -91 4 -86 10 -152 13 -152 2 0 9
-36 14 -85 3 -25 10 -65 15 -90 6 -25 12 -54 15 -65 2 -11 11 -47 20 -80 9
-33 19 -71 22 -84 3 -14 8 -29 12 -35 3 -6 7 -18 9 -26 1 -9 10 -34 19 -55 10
-22 18 -44 19 -50 0 -5 8 -28 18 -49 10 -22 29 -67 44 -100 15 -34 33 -69 41
-78 8 -9 11 -21 8 -27 -3 -5 -2 -11 2 -13 5 -1 24 -30 42 -63 42 -75 95 -159
113 -176 7 -8 14 -18 16 -24 1 -5 11 -20 21 -33 11 -12 20 -25 20 -30 0 -4 15
-24 33 -44 17 -20 50 -58 72 -84 90 -107 258 -267 359 -343 36 -26 62 -52 58
-57 -4 -5 -3 -6 1 -2 5 3 45 -18 89 -48 44 -30 104 -67 132 -82 28 -15 53 -30
56 -33 6 -7 122 -63 133 -64 4 0 11 -6 16 -13 5 -8 11 -13 15 -13 3 1 7 1 9 0
1 0 9 -2 17 -4 14 -4 121 -45 165 -65 20 -9 65 -24 75 -25 6 0 88 -25 110 -33
8 -3 24 -6 35 -8 33 -5 49 -9 61 -16 6 -4 27 -8 47 -10 21 -1 37 -5 37 -8 0
-3 10 -6 23 -7 95 -6 117 -9 117 -14 0 -3 10 -5 23 -6 47 -2 182 -12 185 -13
7 -5 60 -3 75 3 9 3 17 3 17 -1 0 -8 130 -9 145 -1 6 3 34 5 63 4 28 0 52 2
52 5 0 3 19 5 43 4 23 0 46 2 52 5 5 3 21 6 35 7 31 3 86 12 120 19 14 3 35 8
48 10 12 3 31 7 42 10 11 3 30 7 43 10 31 7 187 56 217 68 14 6 27 11 30 11
18 5 107 41 116 48 6 4 14 5 17 1 4 -3 7 -1 7 5 0 7 6 12 13 12 15 0 189 89
265 135 64 39 234 159 268 190 7 5 31 26 54 45 76 63 200 187 200 200 0 7 3
10 6 7 7 -7 23 9 72 72 15 18 36 43 47 56 32 37 55 67 83 110 15 22 35 49 45
59 9 11 17 26 17 33 0 8 7 16 15 19 8 4 13 10 10 14 -3 5 1 15 9 22 8 8 26 37
41 64 42 79 44 83 55 102 6 9 15 28 20 42 6 14 20 45 33 69 12 25 22 47 23 50
0 3 7 20 14 36 7 17 14 32 14 35 1 3 6 19 13 35 29 76 32 86 35 118 1 9 5 17
9 17 7 0 24 75 22 98 0 6 4 12 10 12 6 0 8 2 5 6 -3 3 0 24 7 47 7 23 11 50 9
60 -1 9 1 17 5 17 4 0 8 6 9 13 0 6 3 28 6 47 7 41 12 83 21 160 3 30 8 56 10
59 2 2 0 12 -5 22 -6 10 -6 20 -1 23 11 7 11 336 -1 359 -6 11 -5 17 2 17 7 0
8 5 3 13 -4 6 -8 23 -9 37 -1 14 -5 45 -8 70 -4 25 -9 61 -11 80 -2 19 -4 36
-5 38 -2 1 -4 7 -5 12 -1 6 -4 11 -5 13 -1 1 -3 16 -5 32 -1 17 -5 37 -8 45
-6 14 -25 86 -31 120 -2 8 -6 22 -9 30 -4 8 -18 51 -33 95 -44 133 -126 319
-166 378 -11 15 -17 27 -14 27 5 0 -27 52 -51 85 -5 6 -17 26 -27 45 -11 19
-24 40 -28 45 -4 6 -36 48 -71 95 -73 99 -98 129 -149 183 -21 21 -38 40 -38
42 0 5 -112 115 -117 115 -1 0 -16 14 -31 30 -16 17 -32 30 -35 30 -3 0 -17
10 -30 23 -90 85 -345 253 -487 319 -143 67 -270 119 -270 111 0 -3 -7 0 -15
7 -8 7 -15 9 -15 5 0 -4 -6 -2 -13 4 -8 6 -17 8 -20 4 -4 -3 -7 -1 -7 6 0 7
-5 9 -10 6 -6 -4 -16 -2 -23 3 -7 5 -25 12 -42 16 -16 3 -39 8 -50 11 -11 3
-29 7 -40 10 -11 2 -37 9 -57 14 -21 5 -38 7 -38 4 0 -3 -7 0 -15 7 -8 7 -15
10 -15 8 0 -3 -21 -1 -47 4 -51 10 -104 16 -193 24 -77 7 -400 10 -400 4z
m-1570 -1827 c-11 -17 -11 -17 -6 0 3 10 6 24 7 30 0 9 2 9 5 0 3 -7 0 -20 -6
-30z m-23 -75 c-3 -8 -6 -5 -6 6 -1 11 2 17 5 13 3 -3 4 -12 1 -19z m-23 -92
c-3 -21 -8 -35 -11 -32 -2 2 -1 20 3 40 3 21 8 35 11 32 2 -2 1 -20 -3 -40z
m-21 -113 c-3 -21 -7 -40 -10 -43 -5 -6 -1 61 5 73 8 16 10 5 5 -30z m-21
-105 c-8 -8 -9 -4 -5 13 4 13 8 18 11 10 2 -7 -1 -18 -6 -23z m-5 -70 c-3 -8
-6 -5 -6 6 -1 11 2 17 5 13 3 -3 4 -12 1 -19z m0 -40 c-3 -8 -6 -5 -6 6 -1 11
2 17 5 13 3 -3 4 -12 1 -19z m0 -68 c0 -28 -3 -53 -6 -55 -5 -3 -6 29 -2 93 1
6 3 12 5 12 2 0 4 -23 3 -50z m0 -92 c-3 -8 -6 -5 -6 6 -1 11 2 17 5 13 3 -3
4 -12 1 -19z"/>
</g>
</svg>
