<?xml version="1.0" standalone="no"?>
<!DOCTYPE svg PUBLIC "-//W3C//DTD SVG 20010904//EN"
 "http://www.w3.org/TR/2001/REC-SVG-20010904/DTD/svg10.dtd">
<svg version="1.0" xmlns="http://www.w3.org/2000/svg"
 width="500.000000pt" height="500.000000pt" viewBox="0 0 500.000000 500.000000"
 preserveAspectRatio="xMidYMid meet">
<metadata>
Created by potrace 1.14, written by Peter Selinger 2001-2017
</metadata>
<g transform="translate(0.000000,500.000000) scale(0.100000,-0.100000)"
fill="#000000" stroke="none">
<path d="M2355 4961 c-3 -2 -28 -5 -57 -7 -46 -3 -84 -6 -173 -17 -11 -1 -26
-6 -32 -10 -7 -5 -13 -6 -13 -2 0 3 -10 1 -21 -6 -12 -6 -19 -7 -16 -2 14 22
-314 -73 -458 -132 -54 -23 -70 -28 -77 -27 -5 1 -8 -3 -8 -8 0 -5 -3 -9 -7
-8 -10 3 -184 -86 -248 -126 -93 -59 -112 -72 -132 -90 -13 -11 -23 -15 -23
-10 0 5 -4 4 -8 -2 -4 -5 -25 -23 -47 -39 -22 -16 -47 -36 -57 -45 -9 -8 -31
-26 -49 -40 -19 -14 -77 -67 -129 -117 -52 -51 -98 -93 -102 -93 -5 0 -8 -5
-8 -11 0 -6 -12 -23 -28 -39 -55 -57 -232 -292 -232 -309 0 -4 -9 -18 -20 -31
-11 -13 -20 -29 -20 -37 0 -7 -4 -13 -9 -13 -5 0 -14 -12 -20 -27 -6 -16 -22
-47 -35 -70 -13 -24 -21 -43 -18 -43 4 0 2 -4 -4 -8 -12 -8 -44 -75 -44 -91 0
-6 -5 -11 -10 -11 -6 0 -10 -6 -8 -12 1 -7 -3 -22 -9 -34 -22 -39 -61 -152
-56 -158 4 -3 2 -6 -3 -6 -5 0 -10 -8 -11 -17 -1 -10 -7 -31 -14 -48 -7 -16
-11 -33 -11 -38 1 -4 -4 -23 -12 -41 -8 -19 -12 -36 -10 -39 3 -2 0 -15 -5
-29 -5 -14 -12 -38 -15 -54 -2 -16 -7 -40 -10 -54 -6 -25 -12 -64 -21 -135 -3
-22 -8 -58 -11 -80 -3 -22 -7 -102 -9 -177 -1 -75 -6 -141 -9 -147 -4 -5 -3
-12 2 -15 5 -3 9 -29 10 -58 4 -103 25 -283 32 -283 1 0 4 -13 6 -30 4 -36 23
-124 31 -145 3 -8 5 -21 4 -28 -1 -6 3 -12 9 -12 6 0 8 -5 5 -10 -3 -6 3 -38
15 -71 12 -34 23 -66 25 -73 2 -13 11 -37 31 -86 27 -69 37 -95 38 -100 5 -23
120 -240 128 -240 5 0 7 -4 4 -9 -3 -5 3 -20 14 -34 11 -14 20 -30 20 -36 0
-6 5 -11 10 -11 6 0 10 -6 10 -13 0 -8 9 -22 20 -32 11 -10 20 -22 20 -27 0
-9 72 -109 128 -177 99 -120 255 -278 305 -308 15 -10 27 -20 27 -24 0 -4 26
-26 58 -50 31 -24 59 -47 60 -51 2 -5 10 -8 18 -8 8 0 14 -4 14 -10 0 -5 7
-10 15 -10 8 0 15 -4 15 -8 0 -5 12 -15 28 -23 15 -8 29 -16 32 -19 8 -8 54
-37 65 -40 6 -2 16 -10 23 -17 7 -7 19 -13 27 -13 7 0 15 -4 17 -8 6 -16 330
-166 379 -176 8 -2 28 -9 44 -15 17 -7 41 -15 54 -17 13 -3 31 -9 40 -13 9 -5
30 -12 46 -15 17 -3 48 -10 70 -16 22 -6 51 -13 65 -15 14 -3 34 -7 46 -10 12
-3 37 -7 58 -10 20 -3 53 -8 74 -11 52 -8 113 -14 214 -18 48 -3 92 -7 98 -11
5 -3 10 -3 10 2 0 4 48 9 108 9 127 2 172 6 178 15 2 4 18 4 34 -1 18 -5 32
-5 36 1 3 6 13 9 22 8 10 -1 20 0 25 1 12 4 19 6 72 15 28 4 57 10 65 11 56
10 292 80 335 99 17 7 53 21 80 31 28 10 52 21 55 25 3 4 14 9 25 11 11 1 23
7 26 11 3 5 12 9 20 10 8 2 25 10 38 19 13 10 28 15 31 13 4 -3 13 2 20 10 7
8 18 15 25 15 8 0 15 3 17 8 2 4 23 18 48 31 47 25 216 136 236 155 7 6 24 20
40 31 56 40 164 137 164 148 0 5 3 8 6 5 3 -4 31 21 62 54 31 33 74 78 96 101
21 22 68 79 104 126 36 47 68 88 72 91 4 3 10 15 14 28 4 12 11 22 15 22 5 0
14 14 21 30 7 17 15 30 19 30 3 0 12 15 20 33 8 17 17 34 21 37 12 10 50 82
50 96 0 8 4 14 9 14 5 0 15 16 21 35 6 19 16 35 22 35 6 0 8 3 5 6 -4 4 0 19
8 33 41 76 159 423 154 454 -1 7 1 20 4 30 16 42 19 54 22 82 2 17 6 44 9 60
26 135 43 512 24 548 -6 11 -5 17 2 17 6 0 9 4 5 9 -3 6 -8 36 -10 68 -5 56
-11 99 -21 153 -2 14 -6 39 -9 55 -4 30 -12 65 -15 75 -1 3 -2 8 -2 11 1 4 -9
45 -22 92 -13 47 -21 88 -18 91 3 3 0 6 -6 6 -7 0 -12 9 -12 20 0 12 -7 34
-15 50 -9 17 -12 30 -8 30 4 0 2 5 -5 12 -7 7 -12 22 -12 35 0 13 -4 23 -10
23 -5 0 -10 7 -10 15 0 9 -11 38 -25 65 -14 28 -26 52 -26 55 -4 25 -13 45
-21 45 -5 0 -6 5 -3 10 3 6 1 10 -4 10 -6 0 -10 4 -9 8 4 11 -134 252 -144
252 -4 0 -8 5 -8 10 0 9 -35 65 -50 80 -3 3 -18 23 -35 45 -16 22 -34 45 -40
52 -5 6 -21 26 -35 44 -14 18 -55 64 -92 103 -37 39 -68 74 -68 79 0 4 -6 7
-14 7 -8 0 -17 9 -21 20 -3 11 -9 19 -13 17 -4 -1 -19 9 -33 23 -14 14 -45 41
-69 60 -24 19 -52 43 -62 53 -10 9 -18 15 -18 12 0 -3 -10 4 -22 15 -13 12
-54 42 -93 68 -38 26 -73 52 -77 57 -4 6 -8 7 -8 2 0 -4 -24 8 -52 28 -29 19
-56 35 -61 35 -4 0 -25 11 -46 24 -21 14 -42 22 -45 19 -3 -4 -6 -1 -6 6 0 7
-4 9 -10 6 -5 -3 -10 -1 -10 5 0 6 -4 8 -10 5 -5 -3 -10 -1 -10 4 0 6 -8 11
-18 11 -10 0 -27 7 -38 15 -10 8 -27 15 -36 15 -10 0 -18 4 -18 10 0 5 -6 7
-13 4 -8 -3 -20 2 -27 11 -7 8 -19 15 -28 15 -8 0 -46 11 -83 25 -38 13 -79
27 -92 30 -12 2 -47 12 -77 20 -30 8 -66 18 -80 20 -14 3 -36 7 -50 10 -61 14
-129 26 -175 30 -22 2 -42 4 -45 5 -3 1 -21 2 -40 2 -19 0 -39 3 -45 6 -11 7
-344 10 -350 3z m300 -548 c96 -3 155 -8 155 -15 0 -3 8 -5 17 -4 9 2 35 -1
57 -6 23 -5 55 -11 71 -14 52 -11 60 -12 60 -14 0 -1 8 -3 18 -6 9 -2 23 -6
30 -7 6 -2 26 -7 42 -12 17 -4 36 -12 43 -18 6 -5 12 -7 12 -4 0 5 35 -7 95
-32 70 -30 241 -116 243 -123 2 -4 10 -8 18 -8 8 0 14 -3 14 -8 0 -4 13 -13
29 -20 16 -7 41 -24 55 -37 15 -14 31 -25 37 -25 5 0 17 -8 27 -17 10 -10 38
-34 62 -53 77 -61 299 -290 282 -290 -4 0 -2 -4 3 -8 18 -13 75 -89 75 -101 0
-6 3 -11 8 -11 9 0 98 -152 94 -162 -1 -4 2 -8 7 -8 5 0 15 -16 21 -36 l12
-36 -214 -214 c-118 -118 -213 -216 -210 -219 3 -3 1 -5 -5 -5 -13 0 -162
-148 -155 -155 3 -3 1 -5 -4 -5 -11 0 -305 -290 -295 -290 3 0 -1 -5 -9 -10
-27 -17 -290 -283 -290 -293 0 -6 -2 -8 -5 -5 -6 6 -175 -162 -175 -174 0 -4
-3 -7 -7 -6 -10 2 -293 -282 -293 -294 0 -5 -4 -6 -10 -3 -5 3 -10 1 -10 -4 0
-6 -4 -11 -9 -11 -11 0 -421 409 -421 421 0 5 -4 9 -8 9 -12 0 -312 299 -312
310 0 6 -4 10 -9 10 -12 0 -151 138 -151 150 0 5 -4 10 -8 10 -11 0 -106 94
-110 108 -1 7 2 12 7 12 13 0 79 68 73 75 -3 3 -1 5 4 5 6 0 31 20 56 45 26
25 45 45 44 45 -2 0 37 39 87 88 50 48 101 99 115 114 23 27 24 27 47 10 13
-9 21 -20 18 -24 -2 -5 0 -8 4 -8 13 0 481 -469 475 -475 -3 -3 2 -5 11 -5 8
0 19 -9 22 -20 3 -11 11 -20 17 -20 6 0 16 -7 23 -16 10 -14 76 47 482 454
l471 470 -45 46 c-24 25 -46 46 -49 46 -2 0 -18 12 -35 28 -17 15 -37 26 -43
24 -6 -2 -7 0 -3 4 24 24 -309 191 -438 221 -127 28 -207 37 -330 36 -94 0
-200 -7 -200 -13 0 -1 -13 -3 -30 -5 -34 -4 -51 -7 -115 -26 -25 -7 -47 -13
-50 -13 -3 -1 -11 -5 -17 -9 -7 -5 -17 -5 -23 -2 -5 3 -10 1 -10 -4 0 -6 -4
-11 -9 -11 -5 0 -22 -5 -38 -12 -15 -6 -30 -12 -33 -13 -24 -8 -46 -20 -51
-27 -3 -5 -13 -10 -21 -12 -9 -1 -23 -8 -32 -15 -9 -7 -16 -10 -16 -5 0 5 -4
5 -8 -1 -9 -12 -69 -55 -77 -55 -4 0 -12 -6 -19 -12 -7 -7 -31 -26 -52 -43
-49 -38 -171 -160 -204 -204 -14 -18 -31 -39 -37 -46 -7 -8 -13 -17 -13 -21 0
-4 -11 -21 -24 -38 -25 -33 -71 -118 -67 -125 2 -2 -2 -7 -7 -10 -21 -14 -91
-217 -107 -311 -2 -14 -8 -46 -13 -73 -9 -44 -8 -335 1 -367 2 -8 8 -37 12
-65 10 -56 10 -54 17 -75 3 -8 16 -46 29 -85 12 -38 29 -81 35 -94 7 -14 11
-28 8 -33 -3 -4 -1 -8 5 -8 5 0 13 -9 16 -21 7 -21 74 -139 85 -149 3 -3 14
-18 24 -35 62 -97 320 -335 365 -335 6 0 11 -4 11 -9 0 -5 14 -14 30 -20 17
-5 30 -15 30 -20 0 -6 3 -10 8 -9 8 1 25 -5 97 -37 64 -29 136 -53 177 -60 17
-3 34 -8 38 -10 7 -4 56 -14 105 -21 69 -10 281 -11 293 -2 8 7 12 7 12 0 0
-6 6 -9 13 -7 22 7 82 17 105 16 12 0 22 3 22 7 0 4 17 9 37 10 20 2 43 8 50
14 7 6 13 8 13 5 0 -7 70 17 127 43 24 11 50 20 58 20 8 0 15 5 15 10 0 6 6
10 14 10 8 0 21 6 28 12 7 7 20 14 27 16 52 11 351 259 351 291 0 5 4 11 8 13
4 2 23 24 42 49 52 69 63 86 63 95 1 5 5 14 9 19 4 6 16 21 26 34 20 26 24 26
87 -14 22 -14 48 -28 58 -32 9 -3 17 -9 17 -14 0 -5 5 -9 10 -9 13 0 174 -92
178 -102 2 -5 12 -8 23 -8 10 0 19 -4 19 -8 0 -4 29 -23 65 -42 36 -19 65 -36
65 -38 0 -8 -36 -70 -80 -135 -25 -38 -49 -76 -55 -85 -5 -10 -12 -19 -15 -22
-3 -3 -27 -32 -55 -65 -56 -68 -209 -225 -219 -225 -4 0 -17 -11 -30 -25 -13
-14 -28 -25 -34 -25 -5 0 -12 -7 -16 -15 -3 -8 -12 -15 -21 -15 -8 0 -15 -7
-15 -16 0 -8 -4 -12 -10 -9 -5 3 -10 2 -10 -4 0 -5 -9 -13 -20 -16 -11 -3 -26
-12 -32 -18 -20 -19 -158 -99 -176 -101 -9 -2 -18 -8 -20 -14 -2 -7 -8 -12
-13 -12 -5 0 -31 -9 -57 -21 -110 -49 -162 -69 -162 -63 0 2 -13 -2 -30 -11
-16 -9 -30 -13 -30 -11 0 3 -16 -2 -35 -10 -19 -8 -35 -12 -35 -9 0 4 -6 3
-12 -2 -7 -4 -17 -8 -23 -9 -5 -1 -37 -7 -70 -15 -33 -7 -69 -14 -80 -15 -89
-12 -149 -17 -205 -18 -36 -1 -68 -5 -72 -11 -5 -6 -8 -5 -8 4 0 11 -3 11 -15
1 -8 -7 -15 -8 -15 -4 0 5 -36 9 -80 9 -44 0 -80 2 -80 5 0 3 -17 6 -38 7 -35
2 -67 5 -141 17 -18 3 -39 11 -47 17 -9 8 -14 8 -14 1 0 -12 -54 2 -76 19 -6
5 -13 6 -16 3 -3 -3 -22 2 -42 10 -20 8 -36 12 -36 9 0 -3 -7 0 -15 7 -8 7
-15 9 -15 4 0 -4 -5 -3 -12 4 -7 7 -17 12 -24 12 -6 0 -33 10 -60 22 -27 12
-51 23 -54 23 -11 2 -145 70 -150 76 -3 3 -21 14 -40 24 -40 21 -85 51 -118
79 -12 11 -22 16 -22 12 0 -4 -11 5 -25 19 -14 14 -29 25 -33 25 -4 0 -27 18
-52 41 -67 60 -190 179 -185 179 2 0 -16 21 -40 47 -25 26 -45 51 -45 55 0 4
-11 18 -25 32 -14 14 -25 27 -25 30 0 3 -18 31 -40 62 -22 32 -40 63 -40 70 0
6 -7 15 -16 18 -8 3 -13 10 -10 15 4 5 3 11 -1 13 -11 4 -98 184 -113 233 -7
22 -16 45 -20 50 -6 9 -31 88 -31 100 0 2 -6 23 -14 45 -8 22 -12 40 -8 40 3
0 1 6 -4 13 -10 12 -12 19 -15 77 -1 17 -6 30 -11 30 -4 0 -8 10 -7 23 1 12 1
24 0 27 -5 13 -11 117 -13 230 -1 69 -6 128 -12 132 -7 5 -6 8 0 8 6 0 11 27
12 63 1 34 4 73 7 87 2 14 7 43 11 65 3 22 7 47 10 55 9 30 17 75 17 93 -1 9
3 17 8 17 5 0 9 8 9 18 0 16 8 57 11 57 1 0 3 7 5 15 1 8 13 42 26 75 13 33
22 63 21 68 -1 4 2 7 7 7 6 0 8 9 6 19 -2 11 3 22 11 25 8 3 14 11 14 18 0 7
11 34 25 61 14 26 23 47 20 47 -3 0 3 10 15 22 11 12 20 28 20 35 0 7 5 13 10
13 6 0 9 3 8 8 -3 8 32 64 47 74 6 5 6 8 0 8 -7 0 -7 3 0 8 6 4 23 26 39 50
16 23 33 42 37 42 5 0 9 6 9 13 0 28 241 273 312 317 16 9 26 19 23 22 -3 3 8
11 25 18 16 7 30 16 30 20 0 4 15 15 33 24 17 10 50 30 72 46 22 16 46 29 53
30 6 0 12 5 12 11 0 5 5 7 10 4 6 -3 10 -2 10 3 0 6 12 13 27 17 15 3 30 10
33 14 3 4 34 19 70 35 36 15 78 34 95 41 16 8 33 11 37 9 4 -3 8 0 8 5 0 6 3
10 8 9 4 -1 27 5 52 12 25 7 50 15 55 16 6 2 19 5 30 8 11 2 20 5 20 6 0 2 37
10 63 12 12 1 22 5 22 9 0 4 10 7 23 6 12 0 40 3 62 7 84 15 123 18 228 20 59
2 110 6 114 9 4 4 9 4 12 -1 3 -4 24 -8 46 -9z"/>
</g>
</svg>
