<?xml version="1.0" standalone="no"?>
<!DOCTYPE svg PUBLIC "-//W3C//DTD SVG 20010904//EN"
 "http://www.w3.org/TR/2001/REC-SVG-20010904/DTD/svg10.dtd">
<svg version="1.0" xmlns="http://www.w3.org/2000/svg"
 width="500.000000pt" height="500.000000pt" viewBox="0 0 500.000000 500.000000"
 preserveAspectRatio="xMidYMid meet">
<metadata>
Created by potrace 1.14, written by Peter Selinger 2001-2017
</metadata>
<g transform="translate(0.000000,500.000000) scale(0.100000,-0.100000)"
fill="#000000" stroke="none">
<path d="M2418 4965 c-3 -3 -38 -7 -79 -10 -81 -5 -158 -13 -204 -22 -16 -3
-41 -7 -55 -8 -14 -2 -25 -4 -25 -5 0 -1 -11 -3 -25 -5 -14 -1 -54 -10 -90
-20 -36 -9 -72 -18 -80 -19 -8 -1 -22 -5 -30 -8 -22 -9 -88 -29 -108 -33 -9
-2 -19 -4 -22 -5 -3 -1 -8 -2 -12 -1 -5 0 -8 -4 -8 -11 0 -6 -3 -8 -6 -5 -4 3
-16 1 -28 -5 -11 -7 -29 -13 -39 -15 -10 -2 -29 -10 -42 -19 -14 -9 -25 -13
-25 -10 0 4 -11 -1 -25 -10 -14 -9 -25 -12 -25 -8 0 5 -4 4 -8 -1 -8 -12 -64
-39 -74 -37 -5 1 -8 -2 -8 -7 0 -8 -37 -24 -52 -22 -5 1 -8 -4 -8 -9 0 -6 -4
-10 -10 -10 -11 0 -95 -49 -157 -91 -23 -16 -46 -29 -52 -29 -6 0 -11 -4 -11
-10 0 -5 -6 -10 -14 -10 -8 0 -16 -7 -20 -15 -3 -8 -13 -15 -21 -15 -9 0 -13
-4 -10 -10 3 -5 -1 -10 -9 -10 -9 0 -16 -5 -16 -11 0 -5 -4 -8 -8 -5 -5 3 -15
-3 -24 -12 -8 -9 -35 -32 -59 -51 -81 -64 -317 -308 -374 -387 -11 -15 -35
-47 -52 -71 -18 -24 -33 -46 -33 -49 0 -3 -6 -12 -13 -19 -31 -35 -42 -50 -41
-55 1 -3 -9 -21 -21 -40 -12 -19 -32 -55 -46 -80 -13 -25 -28 -48 -34 -52 -5
-4 -6 -8 -1 -8 5 0 3 -6 -3 -13 -6 -8 -8 -17 -4 -20 3 -4 1 -7 -5 -7 -6 0 -16
-16 -23 -35 -7 -19 -16 -35 -21 -35 -4 0 -5 -7 -2 -15 4 -8 1 -15 -5 -15 -6 0
-11 -6 -11 -12 0 -7 -7 -26 -15 -41 -8 -15 -10 -25 -4 -21 10 6 -9 -35 -21
-46 -6 -5 -31 -82 -36 -108 -1 -8 -6 -21 -10 -30 -8 -20 -11 -29 -18 -60 -3
-12 -8 -27 -12 -33 -4 -6 -8 -23 -10 -38 -3 -28 -10 -62 -18 -89 -3 -9 -8 -30
-11 -47 -3 -16 -8 -43 -11 -60 -9 -47 -21 -160 -29 -285 -7 -93 -7 -88 -2
-127 2 -18 -1 -33 -6 -33 -4 0 -5 -5 -1 -11 3 -6 8 -43 10 -82 4 -76 7 -113
19 -217 4 -36 8 -71 8 -77 0 -7 3 -13 7 -13 4 0 6 -10 6 -23 -1 -12 2 -31 8
-42 5 -11 10 -33 11 -50 1 -16 7 -42 13 -57 6 -16 9 -28 7 -28 -3 0 1 -16 9
-35 8 -19 13 -35 11 -35 -2 0 9 -36 25 -79 15 -44 26 -82 22 -85 -3 -3 -1 -6
5 -6 10 0 28 -46 25 -62 -1 -5 3 -8 8 -8 5 0 9 -3 8 -7 -1 -5 7 -26 17 -48 10
-22 19 -42 19 -45 5 -18 81 -158 93 -172 9 -10 13 -18 9 -18 -4 0 7 -20 24
-44 16 -25 30 -49 30 -54 0 -6 4 -12 8 -14 4 -1 28 -32 52 -68 54 -77 67 -94
102 -131 15 -16 25 -29 21 -29 -3 0 4 -9 17 -20 13 -11 20 -20 17 -20 -11 0
229 -234 282 -275 28 -22 51 -43 51 -47 0 -5 4 -8 10 -8 5 0 21 -10 36 -23 14
-12 29 -22 32 -22 4 1 17 -9 30 -22 13 -13 27 -23 32 -23 5 0 15 -6 22 -14 8
-7 27 -21 43 -30 17 -9 44 -25 60 -36 41 -26 310 -161 327 -164 7 -1 22 -7 33
-12 11 -6 53 -21 93 -34 39 -13 72 -27 72 -32 0 -4 6 -5 13 -2 8 3 34 -2 59
-10 24 -9 55 -18 69 -20 13 -3 24 -5 24 -6 0 -2 23 -6 67 -14 14 -2 41 -7 60
-12 18 -4 42 -8 53 -9 11 -2 45 -6 75 -10 30 -4 71 -8 90 -9 19 -1 41 -5 48
-9 7 -5 12 -4 12 3 0 7 6 8 18 1 26 -14 34 -14 43 1 5 7 9 8 9 2 0 -13 138
-13 159 0 9 6 12 5 8 -1 -6 -10 35 -10 106 0 15 3 30 0 33 -5 3 -5 12 -4 19 2
8 7 18 9 24 6 5 -3 12 0 14 6 4 10 6 10 6 0 1 -7 5 -10 11 -7 5 3 22 8 37 10
25 3 67 10 128 21 11 2 38 6 60 10 22 3 45 10 50 14 6 5 20 7 30 6 11 -2 31 2
45 9 14 7 43 16 65 19 21 4 43 12 47 19 4 6 8 9 8 5 0 -4 16 0 35 8 19 8 35
11 35 8 0 -4 6 -1 13 5 8 6 22 12 33 15 38 8 64 18 64 25 0 4 6 8 13 8 18 1
41 7 47 13 8 8 64 34 75 35 6 0 15 7 22 15 7 8 13 11 13 6 0 -5 9 -1 20 9 11
10 20 15 20 11 0 -4 12 1 28 11 43 29 64 41 106 64 22 12 46 28 54 35 7 8 17
14 21 14 4 0 21 11 36 24 16 14 32 23 37 20 4 -3 8 -1 8 4 0 5 21 24 48 42 26
19 51 40 55 47 5 7 12 11 18 8 5 -4 9 -2 9 4 0 6 17 22 37 36 21 14 33 25 28
25 -5 0 6 11 23 24 18 13 68 61 112 107 110 115 119 125 175 199 28 36 52 67
55 70 11 10 81 120 80 125 0 3 5 12 12 20 31 34 36 43 31 49 -4 3 -1 6 5 6 7
0 12 6 12 14 0 7 7 19 15 26 8 7 12 16 9 21 -3 5 0 9 6 9 6 0 9 4 6 9 -4 5 -2
11 2 13 10 4 80 151 112 233 12 33 27 69 31 80 19 44 38 105 32 105 -3 0 -1 6
5 12 5 7 13 29 18 48 11 50 11 50 14 53 2 3 6 21 14 66 4 19 11 42 16 51 5 10
7 20 4 23 -3 3 -1 22 5 43 10 39 17 88 26 177 2 26 7 53 11 59 5 7 3 8 -5 3
-10 -6 -11 -3 -3 11 12 25 13 364 0 388 -8 14 -7 17 3 11 8 -6 10 -4 4 5 -4 7
-10 32 -12 54 -9 104 -20 179 -30 206 -3 8 -7 29 -8 45 -2 17 -4 31 -5 33 -3
2 -4 5 -14 52 -7 34 -16 64 -32 105 -9 24 -8 22 -17 68 -5 20 -13 37 -19 37
-5 0 -8 6 -5 14 3 8 3 17 -1 21 -4 4 -7 10 -8 13 0 4 -8 25 -18 47 -10 22 -19
47 -21 55 -2 9 -12 33 -24 53 -11 20 -17 37 -13 37 4 0 0 6 -8 13 -8 7 -17 21
-18 32 -2 11 -7 22 -10 25 -4 3 -16 23 -28 45 -11 22 -30 56 -42 76 -11 20
-26 47 -34 60 -7 13 -16 26 -19 29 -3 3 -19 25 -34 50 -16 24 -33 50 -39 56
-6 6 -18 22 -26 34 -8 12 -22 30 -30 40 -8 11 -26 33 -40 51 -14 18 -46 55
-72 82 -27 28 -48 52 -48 55 0 8 -42 42 -52 42 -4 0 -8 4 -8 10 0 8 -47 60
-55 60 -2 0 -19 15 -37 33 -19 17 -49 43 -68 57 -18 14 -39 31 -46 38 -7 6
-18 12 -24 12 -6 0 -8 5 -5 10 3 6 -1 10 -9 10 -9 0 -16 5 -16 11 0 5 -4 8 -9
5 -5 -3 -11 1 -15 9 -3 8 -12 15 -20 15 -8 0 -16 4 -18 8 -4 11 -128 95 -128
87 0 -4 -7 0 -15 7 -25 22 -40 33 -52 35 -6 1 -34 16 -61 32 -28 16 -53 27
-56 24 -3 -4 -6 -1 -6 5 0 7 -3 12 -7 11 -16 -2 -53 14 -53 22 0 5 -8 9 -18 9
-10 0 -22 3 -26 8 -4 4 -11 7 -14 8 -4 0 -20 6 -35 12 -16 7 -30 12 -31 12 -2
0 -21 8 -42 17 -41 17 -60 23 -81 25 -7 1 -13 6 -13 11 0 6 -3 8 -6 4 -3 -3
-31 3 -62 14 -32 11 -58 19 -59 19 -2 0 -4 0 -5 1 -15 4 -47 11 -63 12 -11 2
-25 6 -31 9 -6 4 -30 9 -52 10 -23 2 -42 5 -42 9 0 3 -10 6 -22 7 -28 2 -66 7
-134 16 -28 4 -87 9 -130 11 -43 2 -79 4 -79 5 0 1 -17 3 -37 4 -21 1 -38 -2
-38 -7 0 -5 -6 -5 -13 1 -8 7 -18 7 -27 2 -8 -5 -21 -5 -31 0 -9 5 -19 7 -21
5z"/>
</g>
</svg>
